<mxfile type="device" compressed="false">
    <diagram id="Network Topology" name="Network Topology">
      <mxGraphModel dx="1360" dy="864" grid="1" gridSize="10" guides="1" tooltips="1" connect="1" arrows="1" fold="1" page="1" pageScale="1" pageWidth="827" pageHeight="1169" math="0" shadow="1">
        <root>
          <mxCell id="0" />   
          <mxCell id="1" parent="0" />
        <object id="leaf1" label="leaf1">
      <mxCell style="shape=image;imageAlign=center;imageVerticalAlign=middle;labelPosition=left;align=right;verticalLabelPosition=top;spacingLeft=0;verticalAlign=bottom;spacingTop=0;spacing=0;image=data:image/png,iVBORw0KGgoAAAANSUhEUgAAAFgAAABYCAYAAABxlTA0AAAAAXNSR0IArs4c6QAAAARnQU1BAACxjwv8YQUAAAAJcEhZcwAAFxEAABcRAcom8z8AAAikSURBVHhe7ZwJbBRVGMe3pUBrASkUlVMpV6EUQSlCCqhEjbYiIQEUETFyVEAr3hDwquCFVE2EYoTWCBTk8KgmiBfGqDEoRbkE5JByWW9UtJTC5/d/MwPD8na7OzOvu4vvS35pd3bezPS337735r039flSskijiKZZf2nBKtGCFaMFK0YLVowWrBgtWDFasGK0YMVowYrRghUTlYIbX8IX1lv+XqwRVYKb9SFfYiYlpPYlX1IP+T6xRtQIhlxfF2rf4wbasHE7jc57lF+nyfeVgYyPS+cyncWHJI4n26+uiQrBpty0jFzavfcAIU6cOEE33jY1NMnnXkoJLfrSkFH308hx0ykzeyT5knvK961rIi7YytxuOSz3oJBrxQlm+JiHapfcqCc1aXcFVR2tFuUK5y7hMh3l+9Y1ERV8WuaeLtcKSB5Rm2QW3Ljt5VT582+izKw5xbx/J/m+dU3EBFtyOXP3VBwSYhBHzSw8Wm38tCKoZC3YjwDVwosvv04LFr0tft+6fQ/d9eBs8TsCdXLA6kILtgG5cWa1UHFK7qLlq1lKGyoqXiVe7913iHz1utJtEx8TrxGoLqQNnxZsg7tQPfuNoH0HK4UMxOIV75GvQQZLuYhKSt8V2yr2/0gNL8jmbe1ofP5Msc2K2yc/Tr6G3U8dUwu2kdCVcoffLUQgFiNzIfeci1lKOhUveUdsh+DElv2N7hZnrF3yHPQSErrxxZt3e1qwDVH/duL+6gx6lbPVl8RiIdesl88Q3KiXIdLXge6Z/jy9ULRUVB3o+548phYsoSHfbTXgrznGHSAX2wIJxnuQjP2R7Xa5QAuW0BT4DegEEyzK8P7+ZYAWHCK1CQ6EFhwiWrBiIi0YjafV4Mred4IWbMLnzhkxhdp1v150JT2T/L8XzI1mHN/8jJ1cIMpu2rqTUtsMNLLZC8laMAvmu8LSVe+LsojyjdupuVeSdRXBNO5F8Uk9xC27FetZsshkt9WFFsxAIBo3vomxSy7fZEp2k8lasEkzBrftfLfon8muqgvHgnGyZL4gliImGj3h/JPDlW4Ez5hZxMdK9Tt2qFzItKEX5y+j48ePi+OJ6qKtQ8mOBfMnnX3tOCopfYezrswTFrLcHbsqxB/lRvD6b7fR3KKl4sMKm5I36CUuO2/hSvrn3ypxPAQavgsuGmRUJbJrCIRjwb6ONPn+Z8zTex8/saxwBDdhwX/+fcQsrSY+W7eREs7pceZgUzAcC45Pp+FjptL+A5Ui27xkHx/zy683GQPu3MJLz2+H90luPZDLbKadu/fR9/wtcAyX37FzL33DDVx19TFTLdERzubcYfkUl5QJafLrkOFYMPcf66VeRkmt+otM85IkRsiVnTcI9VL7ivURWBnkCC5bD3UsN5AYe64+Zgg+8k8VDcrN4+0dpOcNimPB4NzexldYBRgnlp0zGE24DMo5AWXF7MmFNOm+p4VYBORemTPemVzgSvDZBOpVXxrlP/ScqZZEIzcod4JzuUCJ4EAD49EKrpUl2uUa1YJLucBzwWgAMOPrPx0UrWAsIjGTpj8xz1RrNGhX5nggF3gqWGRCGk3i7hsWkPgSuUuDuk22b7RgCn7ltbeEXKNaMBs03N3JyoSDZ4JNuWPueFRcKGLB4jKKwyQl3pOViRaQBPytw6LBwSPv9SZzLTwRbModnfewqdaIcXcWGNVFOP3GSIBMbcKNHG6Fcb1eVmuuBZtyb817xNRqRMhre6MJFd80V4ItubZqARGTclXhWLAkc7H0dOjN9/H2tkanvZEb+GZDdt5giJsU2bE8wGl2OxJsyrU3aFVV1TQ2f6aYfsHIlluSMQYrO3cA4rgebcRlZMfyAtxKO5IctmA+CaZX8qbMMtUagYGRXXv2U+VPv4phQ7fgQRgxHhFKJnOGQe6Wbbulx/KCy9F1QyMoO38wwhbMNw+JKb1py/Y9plo1gQ8KAz+hCkaW/XH4L7O09zH4JnTfusjPHwxHVQRncOsOV9Fmzhgr0EF/oaiUZheWUCH/LJzngMJXafN3u8TxMGwZrmBkGgID7oW4Dtk5HNIla5izZ/ccCUY/MT6dWrYfRJtMIZhewSyAaOAEnZiOYdKC5hW7nzKaNaeEj9Xc79guQUPnpH/sSDAwJWMaxZKMWFH2EdfRmcanHe4FeTTpiYwLe9JTFY4FA0syZ7K9ulhZ9rEx8h+uZC1YgpDcVZrJDTDdE8qUj4UWHAB7dbHtlOQlK9dQXH3bsxS1oQUHwZSMhg9T7zU1x+n6YfnGg9my/WVowbUAydwZb99ziFgzIRZy6DrYQ8EAQtG41c8ITy7QghWjBStGC1ZMqIIxxW7vmYQi2L9MXRFTglGn4zWWmWJC1RIWTDDKYGwahNOj8YqYEoyV6Cxq+Zsf0LSCubx/B3N1UQDBkNsgg5LP60erP/yCRk14mLeH2bNxS8wIxjh0w+60jOVacecDz3KZNLGk9EzBLBJyWebaz9aL7Yhrhk42HiT3P7cqYkkw1i9MvOcp8b4VhuR2lNx6wEnBz+OBcV9rSm7ehz75vFxsQ2CNb1rX68Jf4+uGmKoiMP3vNw+ImDBllni4/FDlL+J1wewFFJ/YidZ+fipz123YSs1a8fGQvbqKCCAYoGFjybdwfWqPaQUv0e4fjH8JNr9kFa0oWyt+R6wr30opLbPrXi6IOcHAlDzaT3JNTY34if/vY8VXG76LnFwQrYKxyj2gYBBAsj2MzI1AtWAnugR3ptJVa4ScX38/HFwwsKqL8WdKRp0b0cy1iCrBLDOj3410NXelBuSMp/jmlxkSZftamJLtDd+68i2UEokGTUZUCYYM3G3FpxtyQl00aEqeMOVJ+vSLDZSCRSvRIBdElWA3QDKGSTHm4GTCVRVnjWAAyViGKnsvUpxVgqMRLVgxWrBitGDFaMGK0YIVowUrRgtWjBasGC1YMU2zjviEZY0isn78D43o8OjRWGtOAAAAAElFTkSuQmCC;" vertex="1" parent="1">
          <mxGeometry x="900.0" y="300" width="75" height="75" as="geometry" />
      </mxCell>
    </object><object id="leaf2" label="leaf2">
      <mxCell style="shape=image;imageAlign=center;imageVerticalAlign=middle;labelPosition=left;align=right;verticalLabelPosition=top;spacingLeft=0;verticalAlign=bottom;spacingTop=0;spacing=0;image=data:image/png,iVBORw0KGgoAAAANSUhEUgAAAFgAAABYCAYAAABxlTA0AAAAAXNSR0IArs4c6QAAAARnQU1BAACxjwv8YQUAAAAJcEhZcwAAFxEAABcRAcom8z8AAAikSURBVHhe7ZwJbBRVGMe3pUBrASkUlVMpV6EUQSlCCqhEjbYiIQEUETFyVEAr3hDwquCFVE2EYoTWCBTk8KgmiBfGqDEoRbkE5JByWW9UtJTC5/d/MwPD8na7OzOvu4vvS35pd3bezPS337735r039flSskijiKZZf2nBKtGCFaMFK0YLVowWrBgtWDFasGK0YMVowYrRghUTlYIbX8IX1lv+XqwRVYKb9SFfYiYlpPYlX1IP+T6xRtQIhlxfF2rf4wbasHE7jc57lF+nyfeVgYyPS+cyncWHJI4n26+uiQrBpty0jFzavfcAIU6cOEE33jY1NMnnXkoJLfrSkFH308hx0ykzeyT5knvK961rIi7YytxuOSz3oJBrxQlm+JiHapfcqCc1aXcFVR2tFuUK5y7hMh3l+9Y1ERV8WuaeLtcKSB5Rm2QW3Ljt5VT582+izKw5xbx/J/m+dU3EBFtyOXP3VBwSYhBHzSw8Wm38tCKoZC3YjwDVwosvv04LFr0tft+6fQ/d9eBs8TsCdXLA6kILtgG5cWa1UHFK7qLlq1lKGyoqXiVe7913iHz1utJtEx8TrxGoLqQNnxZsg7tQPfuNoH0HK4UMxOIV75GvQQZLuYhKSt8V2yr2/0gNL8jmbe1ofP5Msc2K2yc/Tr6G3U8dUwu2kdCVcoffLUQgFiNzIfeci1lKOhUveUdsh+DElv2N7hZnrF3yHPQSErrxxZt3e1qwDVH/duL+6gx6lbPVl8RiIdesl88Q3KiXIdLXge6Z/jy9ULRUVB3o+548phYsoSHfbTXgrznGHSAX2wIJxnuQjP2R7Xa5QAuW0BT4DegEEyzK8P7+ZYAWHCK1CQ6EFhwiWrBiIi0YjafV4Mred4IWbMLnzhkxhdp1v150JT2T/L8XzI1mHN/8jJ1cIMpu2rqTUtsMNLLZC8laMAvmu8LSVe+LsojyjdupuVeSdRXBNO5F8Uk9xC27FetZsshkt9WFFsxAIBo3vomxSy7fZEp2k8lasEkzBrftfLfon8muqgvHgnGyZL4gliImGj3h/JPDlW4Ez5hZxMdK9Tt2qFzItKEX5y+j48ePi+OJ6qKtQ8mOBfMnnX3tOCopfYezrswTFrLcHbsqxB/lRvD6b7fR3KKl4sMKm5I36CUuO2/hSvrn3ypxPAQavgsuGmRUJbJrCIRjwb6ONPn+Z8zTex8/saxwBDdhwX/+fcQsrSY+W7eREs7pceZgUzAcC45Pp+FjptL+A5Ui27xkHx/zy683GQPu3MJLz2+H90luPZDLbKadu/fR9/wtcAyX37FzL33DDVx19TFTLdERzubcYfkUl5QJafLrkOFYMPcf66VeRkmt+otM85IkRsiVnTcI9VL7ivURWBnkCC5bD3UsN5AYe64+Zgg+8k8VDcrN4+0dpOcNimPB4NzexldYBRgnlp0zGE24DMo5AWXF7MmFNOm+p4VYBORemTPemVzgSvDZBOpVXxrlP/ScqZZEIzcod4JzuUCJ4EAD49EKrpUl2uUa1YJLucBzwWgAMOPrPx0UrWAsIjGTpj8xz1RrNGhX5nggF3gqWGRCGk3i7hsWkPgSuUuDuk22b7RgCn7ltbeEXKNaMBs03N3JyoSDZ4JNuWPueFRcKGLB4jKKwyQl3pOViRaQBPytw6LBwSPv9SZzLTwRbModnfewqdaIcXcWGNVFOP3GSIBMbcKNHG6Fcb1eVmuuBZtyb817xNRqRMhre6MJFd80V4ItubZqARGTclXhWLAkc7H0dOjN9/H2tkanvZEb+GZDdt5giJsU2bE8wGl2OxJsyrU3aFVV1TQ2f6aYfsHIlluSMQYrO3cA4rgebcRlZMfyAtxKO5IctmA+CaZX8qbMMtUagYGRXXv2U+VPv4phQ7fgQRgxHhFKJnOGQe6Wbbulx/KCy9F1QyMoO38wwhbMNw+JKb1py/Y9plo1gQ8KAz+hCkaW/XH4L7O09zH4JnTfusjPHwxHVQRncOsOV9Fmzhgr0EF/oaiUZheWUCH/LJzngMJXafN3u8TxMGwZrmBkGgID7oW4Dtk5HNIla5izZ/ccCUY/MT6dWrYfRJtMIZhewSyAaOAEnZiOYdKC5hW7nzKaNaeEj9Xc79guQUPnpH/sSDAwJWMaxZKMWFH2EdfRmcanHe4FeTTpiYwLe9JTFY4FA0syZ7K9ulhZ9rEx8h+uZC1YgpDcVZrJDTDdE8qUj4UWHAB7dbHtlOQlK9dQXH3bsxS1oQUHwZSMhg9T7zU1x+n6YfnGg9my/WVowbUAydwZb99ziFgzIRZy6DrYQ8EAQtG41c8ITy7QghWjBStGC1ZMqIIxxW7vmYQi2L9MXRFTglGn4zWWmWJC1RIWTDDKYGwahNOj8YqYEoyV6Cxq+Zsf0LSCubx/B3N1UQDBkNsgg5LP60erP/yCRk14mLeH2bNxS8wIxjh0w+60jOVacecDz3KZNLGk9EzBLBJyWebaz9aL7Yhrhk42HiT3P7cqYkkw1i9MvOcp8b4VhuR2lNx6wEnBz+OBcV9rSm7ehz75vFxsQ2CNb1rX68Jf4+uGmKoiMP3vNw+ImDBllni4/FDlL+J1wewFFJ/YidZ+fipz123YSs1a8fGQvbqKCCAYoGFjybdwfWqPaQUv0e4fjH8JNr9kFa0oWyt+R6wr30opLbPrXi6IOcHAlDzaT3JNTY34if/vY8VXG76LnFwQrYKxyj2gYBBAsj2MzI1AtWAnugR3ptJVa4ScX38/HFwwsKqL8WdKRp0b0cy1iCrBLDOj3410NXelBuSMp/jmlxkSZftamJLtDd+68i2UEokGTUZUCYYM3G3FpxtyQl00aEqeMOVJ+vSLDZSCRSvRIBdElWA3QDKGSTHm4GTCVRVnjWAAyViGKnsvUpxVgqMRLVgxWrBitGDFaMGK0YIVowUrRgtWjBasGC1YMU2zjviEZY0isn78D43o8OjRWGtOAAAAAElFTkSuQmCC;" vertex="1" parent="1">
          <mxGeometry x="1100.0" y="300" width="75" height="75" as="geometry" />
      </mxCell>
    </object><object id="leaf3" label="leaf3">
      <mxCell style="shape=image;imageAlign=center;imageVerticalAlign=middle;labelPosition=left;align=right;verticalLabelPosition=top;spacingLeft=0;verticalAlign=bottom;spacingTop=0;spacing=0;image=data:image/png,iVBORw0KGgoAAAANSUhEUgAAAFgAAABYCAYAAABxlTA0AAAAAXNSR0IArs4c6QAAAARnQU1BAACxjwv8YQUAAAAJcEhZcwAAFxEAABcRAcom8z8AAAikSURBVHhe7ZwJbBRVGMe3pUBrASkUlVMpV6EUQSlCCqhEjbYiIQEUETFyVEAr3hDwquCFVE2EYoTWCBTk8KgmiBfGqDEoRbkE5JByWW9UtJTC5/d/MwPD8na7OzOvu4vvS35pd3bezPS337735r039flSskijiKZZf2nBKtGCFaMFK0YLVowWrBgtWDFasGK0YMVowYrRghUTlYIbX8IX1lv+XqwRVYKb9SFfYiYlpPYlX1IP+T6xRtQIhlxfF2rf4wbasHE7jc57lF+nyfeVgYyPS+cyncWHJI4n26+uiQrBpty0jFzavfcAIU6cOEE33jY1NMnnXkoJLfrSkFH308hx0ykzeyT5knvK961rIi7YytxuOSz3oJBrxQlm+JiHapfcqCc1aXcFVR2tFuUK5y7hMh3l+9Y1ERV8WuaeLtcKSB5Rm2QW3Ljt5VT582+izKw5xbx/J/m+dU3EBFtyOXP3VBwSYhBHzSw8Wm38tCKoZC3YjwDVwosvv04LFr0tft+6fQ/d9eBs8TsCdXLA6kILtgG5cWa1UHFK7qLlq1lKGyoqXiVe7913iHz1utJtEx8TrxGoLqQNnxZsg7tQPfuNoH0HK4UMxOIV75GvQQZLuYhKSt8V2yr2/0gNL8jmbe1ofP5Msc2K2yc/Tr6G3U8dUwu2kdCVcoffLUQgFiNzIfeci1lKOhUveUdsh+DElv2N7hZnrF3yHPQSErrxxZt3e1qwDVH/duL+6gx6lbPVl8RiIdesl88Q3KiXIdLXge6Z/jy9ULRUVB3o+548phYsoSHfbTXgrznGHSAX2wIJxnuQjP2R7Xa5QAuW0BT4DegEEyzK8P7+ZYAWHCK1CQ6EFhwiWrBiIi0YjafV4Mred4IWbMLnzhkxhdp1v150JT2T/L8XzI1mHN/8jJ1cIMpu2rqTUtsMNLLZC8laMAvmu8LSVe+LsojyjdupuVeSdRXBNO5F8Uk9xC27FetZsshkt9WFFsxAIBo3vomxSy7fZEp2k8lasEkzBrftfLfon8muqgvHgnGyZL4gliImGj3h/JPDlW4Ez5hZxMdK9Tt2qFzItKEX5y+j48ePi+OJ6qKtQ8mOBfMnnX3tOCopfYezrswTFrLcHbsqxB/lRvD6b7fR3KKl4sMKm5I36CUuO2/hSvrn3ypxPAQavgsuGmRUJbJrCIRjwb6ONPn+Z8zTex8/saxwBDdhwX/+fcQsrSY+W7eREs7pceZgUzAcC45Pp+FjptL+A5Ui27xkHx/zy683GQPu3MJLz2+H90luPZDLbKadu/fR9/wtcAyX37FzL33DDVx19TFTLdERzubcYfkUl5QJafLrkOFYMPcf66VeRkmt+otM85IkRsiVnTcI9VL7ivURWBnkCC5bD3UsN5AYe64+Zgg+8k8VDcrN4+0dpOcNimPB4NzexldYBRgnlp0zGE24DMo5AWXF7MmFNOm+p4VYBORemTPemVzgSvDZBOpVXxrlP/ScqZZEIzcod4JzuUCJ4EAD49EKrpUl2uUa1YJLucBzwWgAMOPrPx0UrWAsIjGTpj8xz1RrNGhX5nggF3gqWGRCGk3i7hsWkPgSuUuDuk22b7RgCn7ltbeEXKNaMBs03N3JyoSDZ4JNuWPueFRcKGLB4jKKwyQl3pOViRaQBPytw6LBwSPv9SZzLTwRbModnfewqdaIcXcWGNVFOP3GSIBMbcKNHG6Fcb1eVmuuBZtyb817xNRqRMhre6MJFd80V4ItubZqARGTclXhWLAkc7H0dOjN9/H2tkanvZEb+GZDdt5giJsU2bE8wGl2OxJsyrU3aFVV1TQ2f6aYfsHIlluSMQYrO3cA4rgebcRlZMfyAtxKO5IctmA+CaZX8qbMMtUagYGRXXv2U+VPv4phQ7fgQRgxHhFKJnOGQe6Wbbulx/KCy9F1QyMoO38wwhbMNw+JKb1py/Y9plo1gQ8KAz+hCkaW/XH4L7O09zH4JnTfusjPHwxHVQRncOsOV9Fmzhgr0EF/oaiUZheWUCH/LJzngMJXafN3u8TxMGwZrmBkGgID7oW4Dtk5HNIla5izZ/ccCUY/MT6dWrYfRJtMIZhewSyAaOAEnZiOYdKC5hW7nzKaNaeEj9Xc79guQUPnpH/sSDAwJWMaxZKMWFH2EdfRmcanHe4FeTTpiYwLe9JTFY4FA0syZ7K9ulhZ9rEx8h+uZC1YgpDcVZrJDTDdE8qUj4UWHAB7dbHtlOQlK9dQXH3bsxS1oQUHwZSMhg9T7zU1x+n6YfnGg9my/WVowbUAydwZb99ziFgzIRZy6DrYQ8EAQtG41c8ITy7QghWjBStGC1ZMqIIxxW7vmYQi2L9MXRFTglGn4zWWmWJC1RIWTDDKYGwahNOj8YqYEoyV6Cxq+Zsf0LSCubx/B3N1UQDBkNsgg5LP60erP/yCRk14mLeH2bNxS8wIxjh0w+60jOVacecDz3KZNLGk9EzBLBJyWebaz9aL7Yhrhk42HiT3P7cqYkkw1i9MvOcp8b4VhuR2lNx6wEnBz+OBcV9rSm7ehz75vFxsQ2CNb1rX68Jf4+uGmKoiMP3vNw+ImDBllni4/FDlL+J1wewFFJ/YidZ+fipz123YSs1a8fGQvbqKCCAYoGFjybdwfWqPaQUv0e4fjH8JNr9kFa0oWyt+R6wr30opLbPrXi6IOcHAlDzaT3JNTY34if/vY8VXG76LnFwQrYKxyj2gYBBAsj2MzI1AtWAnugR3ptJVa4ScX38/HFwwsKqL8WdKRp0b0cy1iCrBLDOj3410NXelBuSMp/jmlxkSZftamJLtDd+68i2UEokGTUZUCYYM3G3FpxtyQl00aEqeMOVJ+vSLDZSCRSvRIBdElWA3QDKGSTHm4GTCVRVnjWAAyViGKnsvUpxVgqMRLVgxWrBitGDFaMGK0YIVowUrRgtWjBasGC1YMU2zjviEZY0isn78D43o8OjRWGtOAAAAAElFTkSuQmCC;" vertex="1" parent="1">
          <mxGeometry x="1300.0" y="300" width="75" height="75" as="geometry" />
      </mxCell>
    </object><object id="leaf4" label="leaf4">
      <mxCell style="shape=image;imageAlign=center;imageVerticalAlign=middle;labelPosition=left;align=right;verticalLabelPosition=top;spacingLeft=0;verticalAlign=bottom;spacingTop=0;spacing=0;image=data:image/png,iVBORw0KGgoAAAANSUhEUgAAAFgAAABYCAYAAABxlTA0AAAAAXNSR0IArs4c6QAAAARnQU1BAACxjwv8YQUAAAAJcEhZcwAAFxEAABcRAcom8z8AAAikSURBVHhe7ZwJbBRVGMe3pUBrASkUlVMpV6EUQSlCCqhEjbYiIQEUETFyVEAr3hDwquCFVE2EYoTWCBTk8KgmiBfGqDEoRbkE5JByWW9UtJTC5/d/MwPD8na7OzOvu4vvS35pd3bezPS337735r039flSskijiKZZf2nBKtGCFaMFK0YLVowWrBgtWDFasGK0YMVowYrRghUTlYIbX8IX1lv+XqwRVYKb9SFfYiYlpPYlX1IP+T6xRtQIhlxfF2rf4wbasHE7jc57lF+nyfeVgYyPS+cyncWHJI4n26+uiQrBpty0jFzavfcAIU6cOEE33jY1NMnnXkoJLfrSkFH308hx0ykzeyT5knvK961rIi7YytxuOSz3oJBrxQlm+JiHapfcqCc1aXcFVR2tFuUK5y7hMh3l+9Y1ERV8WuaeLtcKSB5Rm2QW3Ljt5VT582+izKw5xbx/J/m+dU3EBFtyOXP3VBwSYhBHzSw8Wm38tCKoZC3YjwDVwosvv04LFr0tft+6fQ/d9eBs8TsCdXLA6kILtgG5cWa1UHFK7qLlq1lKGyoqXiVe7913iHz1utJtEx8TrxGoLqQNnxZsg7tQPfuNoH0HK4UMxOIV75GvQQZLuYhKSt8V2yr2/0gNL8jmbe1ofP5Msc2K2yc/Tr6G3U8dUwu2kdCVcoffLUQgFiNzIfeci1lKOhUveUdsh+DElv2N7hZnrF3yHPQSErrxxZt3e1qwDVH/duL+6gx6lbPVl8RiIdesl88Q3KiXIdLXge6Z/jy9ULRUVB3o+548phYsoSHfbTXgrznGHSAX2wIJxnuQjP2R7Xa5QAuW0BT4DegEEyzK8P7+ZYAWHCK1CQ6EFhwiWrBiIi0YjafV4Mred4IWbMLnzhkxhdp1v150JT2T/L8XzI1mHN/8jJ1cIMpu2rqTUtsMNLLZC8laMAvmu8LSVe+LsojyjdupuVeSdRXBNO5F8Uk9xC27FetZsshkt9WFFsxAIBo3vomxSy7fZEp2k8lasEkzBrftfLfon8muqgvHgnGyZL4gliImGj3h/JPDlW4Ez5hZxMdK9Tt2qFzItKEX5y+j48ePi+OJ6qKtQ8mOBfMnnX3tOCopfYezrswTFrLcHbsqxB/lRvD6b7fR3KKl4sMKm5I36CUuO2/hSvrn3ypxPAQavgsuGmRUJbJrCIRjwb6ONPn+Z8zTex8/saxwBDdhwX/+fcQsrSY+W7eREs7pceZgUzAcC45Pp+FjptL+A5Ui27xkHx/zy683GQPu3MJLz2+H90luPZDLbKadu/fR9/wtcAyX37FzL33DDVx19TFTLdERzubcYfkUl5QJafLrkOFYMPcf66VeRkmt+otM85IkRsiVnTcI9VL7ivURWBnkCC5bD3UsN5AYe64+Zgg+8k8VDcrN4+0dpOcNimPB4NzexldYBRgnlp0zGE24DMo5AWXF7MmFNOm+p4VYBORemTPemVzgSvDZBOpVXxrlP/ScqZZEIzcod4JzuUCJ4EAD49EKrpUl2uUa1YJLucBzwWgAMOPrPx0UrWAsIjGTpj8xz1RrNGhX5nggF3gqWGRCGk3i7hsWkPgSuUuDuk22b7RgCn7ltbeEXKNaMBs03N3JyoSDZ4JNuWPueFRcKGLB4jKKwyQl3pOViRaQBPytw6LBwSPv9SZzLTwRbModnfewqdaIcXcWGNVFOP3GSIBMbcKNHG6Fcb1eVmuuBZtyb817xNRqRMhre6MJFd80V4ItubZqARGTclXhWLAkc7H0dOjN9/H2tkanvZEb+GZDdt5giJsU2bE8wGl2OxJsyrU3aFVV1TQ2f6aYfsHIlluSMQYrO3cA4rgebcRlZMfyAtxKO5IctmA+CaZX8qbMMtUagYGRXXv2U+VPv4phQ7fgQRgxHhFKJnOGQe6Wbbulx/KCy9F1QyMoO38wwhbMNw+JKb1py/Y9plo1gQ8KAz+hCkaW/XH4L7O09zH4JnTfusjPHwxHVQRncOsOV9Fmzhgr0EF/oaiUZheWUCH/LJzngMJXafN3u8TxMGwZrmBkGgID7oW4Dtk5HNIla5izZ/ccCUY/MT6dWrYfRJtMIZhewSyAaOAEnZiOYdKC5hW7nzKaNaeEj9Xc79guQUPnpH/sSDAwJWMaxZKMWFH2EdfRmcanHe4FeTTpiYwLe9JTFY4FA0syZ7K9ulhZ9rEx8h+uZC1YgpDcVZrJDTDdE8qUj4UWHAB7dbHtlOQlK9dQXH3bsxS1oQUHwZSMhg9T7zU1x+n6YfnGg9my/WVowbUAydwZb99ziFgzIRZy6DrYQ8EAQtG41c8ITy7QghWjBStGC1ZMqIIxxW7vmYQi2L9MXRFTglGn4zWWmWJC1RIWTDDKYGwahNOj8YqYEoyV6Cxq+Zsf0LSCubx/B3N1UQDBkNsgg5LP60erP/yCRk14mLeH2bNxS8wIxjh0w+60jOVacecDz3KZNLGk9EzBLBJyWebaz9aL7Yhrhk42HiT3P7cqYkkw1i9MvOcp8b4VhuR2lNx6wEnBz+OBcV9rSm7ehz75vFxsQ2CNb1rX68Jf4+uGmKoiMP3vNw+ImDBllni4/FDlL+J1wewFFJ/YidZ+fipz123YSs1a8fGQvbqKCCAYoGFjybdwfWqPaQUv0e4fjH8JNr9kFa0oWyt+R6wr30opLbPrXi6IOcHAlDzaT3JNTY34if/vY8VXG76LnFwQrYKxyj2gYBBAsj2MzI1AtWAnugR3ptJVa4ScX38/HFwwsKqL8WdKRp0b0cy1iCrBLDOj3410NXelBuSMp/jmlxkSZftamJLtDd+68i2UEokGTUZUCYYM3G3FpxtyQl00aEqeMOVJ+vSLDZSCRSvRIBdElWA3QDKGSTHm4GTCVRVnjWAAyViGKnsvUpxVgqMRLVgxWrBitGDFaMGK0YIVowUrRgtWjBasGC1YMU2zjviEZY0isn78D43o8OjRWGtOAAAAAElFTkSuQmCC;" vertex="1" parent="1">
          <mxGeometry x="1500.0" y="300" width="75" height="75" as="geometry" />
      </mxCell>
    </object><object id="spine1" label="spine1">
      <mxCell style="shape=image;imageAlign=center;imageVerticalAlign=middle;labelPosition=left;align=right;verticalLabelPosition=top;spacingLeft=0;verticalAlign=bottom;spacingTop=0;spacing=0;image=data:image/png,iVBORw0KGgoAAAANSUhEUgAAAFgAAABYCAYAAABxlTA0AAAAAXNSR0IArs4c6QAAAARnQU1BAACxjwv8YQUAAAAJcEhZcwAAFxEAABcRAcom8z8AAAikSURBVHhe7ZwJbBRVGMe3pUBrASkUlVMpV6EUQSlCCqhEjbYiIQEUETFyVEAr3hDwquCFVE2EYoTWCBTk8KgmiBfGqDEoRbkE5JByWW9UtJTC5/d/MwPD8na7OzOvu4vvS35pd3bezPS337735r039flSskijiKZZf2nBKtGCFaMFK0YLVowWrBgtWDFasGK0YMVowYrRghUTlYIbX8IX1lv+XqwRVYKb9SFfYiYlpPYlX1IP+T6xRtQIhlxfF2rf4wbasHE7jc57lF+nyfeVgYyPS+cyncWHJI4n26+uiQrBpty0jFzavfcAIU6cOEE33jY1NMnnXkoJLfrSkFH308hx0ykzeyT5knvK961rIi7YytxuOSz3oJBrxQlm+JiHapfcqCc1aXcFVR2tFuUK5y7hMh3l+9Y1ERV8WuaeLtcKSB5Rm2QW3Ljt5VT582+izKw5xbx/J/m+dU3EBFtyOXP3VBwSYhBHzSw8Wm38tCKoZC3YjwDVwosvv04LFr0tft+6fQ/d9eBs8TsCdXLA6kILtgG5cWa1UHFK7qLlq1lKGyoqXiVe7913iHz1utJtEx8TrxGoLqQNnxZsg7tQPfuNoH0HK4UMxOIV75GvQQZLuYhKSt8V2yr2/0gNL8jmbe1ofP5Msc2K2yc/Tr6G3U8dUwu2kdCVcoffLUQgFiNzIfeci1lKOhUveUdsh+DElv2N7hZnrF3yHPQSErrxxZt3e1qwDVH/duL+6gx6lbPVl8RiIdesl88Q3KiXIdLXge6Z/jy9ULRUVB3o+548phYsoSHfbTXgrznGHSAX2wIJxnuQjP2R7Xa5QAuW0BT4DegEEyzK8P7+ZYAWHCK1CQ6EFhwiWrBiIi0YjafV4Mred4IWbMLnzhkxhdp1v150JT2T/L8XzI1mHN/8jJ1cIMpu2rqTUtsMNLLZC8laMAvmu8LSVe+LsojyjdupuVeSdRXBNO5F8Uk9xC27FetZsshkt9WFFsxAIBo3vomxSy7fZEp2k8lasEkzBrftfLfon8muqgvHgnGyZL4gliImGj3h/JPDlW4Ez5hZxMdK9Tt2qFzItKEX5y+j48ePi+OJ6qKtQ8mOBfMnnX3tOCopfYezrswTFrLcHbsqxB/lRvD6b7fR3KKl4sMKm5I36CUuO2/hSvrn3ypxPAQavgsuGmRUJbJrCIRjwb6ONPn+Z8zTex8/saxwBDdhwX/+fcQsrSY+W7eREs7pceZgUzAcC45Pp+FjptL+A5Ui27xkHx/zy683GQPu3MJLz2+H90luPZDLbKadu/fR9/wtcAyX37FzL33DDVx19TFTLdERzubcYfkUl5QJafLrkOFYMPcf66VeRkmt+otM85IkRsiVnTcI9VL7ivURWBnkCC5bD3UsN5AYe64+Zgg+8k8VDcrN4+0dpOcNimPB4NzexldYBRgnlp0zGE24DMo5AWXF7MmFNOm+p4VYBORemTPemVzgSvDZBOpVXxrlP/ScqZZEIzcod4JzuUCJ4EAD49EKrpUl2uUa1YJLucBzwWgAMOPrPx0UrWAsIjGTpj8xz1RrNGhX5nggF3gqWGRCGk3i7hsWkPgSuUuDuk22b7RgCn7ltbeEXKNaMBs03N3JyoSDZ4JNuWPueFRcKGLB4jKKwyQl3pOViRaQBPytw6LBwSPv9SZzLTwRbModnfewqdaIcXcWGNVFOP3GSIBMbcKNHG6Fcb1eVmuuBZtyb817xNRqRMhre6MJFd80V4ItubZqARGTclXhWLAkc7H0dOjN9/H2tkanvZEb+GZDdt5giJsU2bE8wGl2OxJsyrU3aFVV1TQ2f6aYfsHIlluSMQYrO3cA4rgebcRlZMfyAtxKO5IctmA+CaZX8qbMMtUagYGRXXv2U+VPv4phQ7fgQRgxHhFKJnOGQe6Wbbulx/KCy9F1QyMoO38wwhbMNw+JKb1py/Y9plo1gQ8KAz+hCkaW/XH4L7O09zH4JnTfusjPHwxHVQRncOsOV9Fmzhgr0EF/oaiUZheWUCH/LJzngMJXafN3u8TxMGwZrmBkGgID7oW4Dtk5HNIla5izZ/ccCUY/MT6dWrYfRJtMIZhewSyAaOAEnZiOYdKC5hW7nzKaNaeEj9Xc79guQUPnpH/sSDAwJWMaxZKMWFH2EdfRmcanHe4FeTTpiYwLe9JTFY4FA0syZ7K9ulhZ9rEx8h+uZC1YgpDcVZrJDTDdE8qUj4UWHAB7dbHtlOQlK9dQXH3bsxS1oQUHwZSMhg9T7zU1x+n6YfnGg9my/WVowbUAydwZb99ziFgzIRZy6DrYQ8EAQtG41c8ITy7QghWjBStGC1ZMqIIxxW7vmYQi2L9MXRFTglGn4zWWmWJC1RIWTDDKYGwahNOj8YqYEoyV6Cxq+Zsf0LSCubx/B3N1UQDBkNsgg5LP60erP/yCRk14mLeH2bNxS8wIxjh0w+60jOVacecDz3KZNLGk9EzBLBJyWebaz9aL7Yhrhk42HiT3P7cqYkkw1i9MvOcp8b4VhuR2lNx6wEnBz+OBcV9rSm7ehz75vFxsQ2CNb1rX68Jf4+uGmKoiMP3vNw+ImDBllni4/FDlL+J1wewFFJ/YidZ+fipz123YSs1a8fGQvbqKCCAYoGFjybdwfWqPaQUv0e4fjH8JNr9kFa0oWyt+R6wr30opLbPrXi6IOcHAlDzaT3JNTY34if/vY8VXG76LnFwQrYKxyj2gYBBAsj2MzI1AtWAnugR3ptJVa4ScX38/HFwwsKqL8WdKRp0b0cy1iCrBLDOj3410NXelBuSMp/jmlxkSZftamJLtDd+68i2UEokGTUZUCYYM3G3FpxtyQl00aEqeMOVJ+vSLDZSCRSvRIBdElWA3QDKGSTHm4GTCVRVnjWAAyViGKnsvUpxVgqMRLVgxWrBitGDFaMGK0YIVowUrRgtWjBasGC1YMU2zjviEZY0isn78D43o8OjRWGtOAAAAAElFTkSuQmCC;" vertex="1" parent="1">
          <mxGeometry x="900.0" y="500" width="75" height="75" as="geometry" />
      </mxCell>
    </object><object id="spine2" label="spine2">
      <mxCell style="shape=image;imageAlign=center;imageVerticalAlign=middle;labelPosition=left;align=right;verticalLabelPosition=top;spacingLeft=0;verticalAlign=bottom;spacingTop=0;spacing=0;image=data:image/png,iVBORw0KGgoAAAANSUhEUgAAAFgAAABYCAYAAABxlTA0AAAAAXNSR0IArs4c6QAAAARnQU1BAACxjwv8YQUAAAAJcEhZcwAAFxEAABcRAcom8z8AAAikSURBVHhe7ZwJbBRVGMe3pUBrASkUlVMpV6EUQSlCCqhEjbYiIQEUETFyVEAr3hDwquCFVE2EYoTWCBTk8KgmiBfGqDEoRbkE5JByWW9UtJTC5/d/MwPD8na7OzOvu4vvS35pd3bezPS337735r039flSskijiKZZf2nBKtGCFaMFK0YLVowWrBgtWDFasGK0YMVowYrRghUTlYIbX8IX1lv+XqwRVYKb9SFfYiYlpPYlX1IP+T6xRtQIhlxfF2rf4wbasHE7jc57lF+nyfeVgYyPS+cyncWHJI4n26+uiQrBpty0jFzavfcAIU6cOEE33jY1NMnnXkoJLfrSkFH308hx0ykzeyT5knvK961rIi7YytxuOSz3oJBrxQlm+JiHapfcqCc1aXcFVR2tFuUK5y7hMh3l+9Y1ERV8WuaeLtcKSB5Rm2QW3Ljt5VT582+izKw5xbx/J/m+dU3EBFtyOXP3VBwSYhBHzSw8Wm38tCKoZC3YjwDVwosvv04LFr0tft+6fQ/d9eBs8TsCdXLA6kILtgG5cWa1UHFK7qLlq1lKGyoqXiVe7913iHz1utJtEx8TrxGoLqQNnxZsg7tQPfuNoH0HK4UMxOIV75GvQQZLuYhKSt8V2yr2/0gNL8jmbe1ofP5Msc2K2yc/Tr6G3U8dUwu2kdCVcoffLUQgFiNzIfeci1lKOhUveUdsh+DElv2N7hZnrF3yHPQSErrxxZt3e1qwDVH/duL+6gx6lbPVl8RiIdesl88Q3KiXIdLXge6Z/jy9ULRUVB3o+548phYsoSHfbTXgrznGHSAX2wIJxnuQjP2R7Xa5QAuW0BT4DegEEyzK8P7+ZYAWHCK1CQ6EFhwiWrBiIi0YjafV4Mred4IWbMLnzhkxhdp1v150JT2T/L8XzI1mHN/8jJ1cIMpu2rqTUtsMNLLZC8laMAvmu8LSVe+LsojyjdupuVeSdRXBNO5F8Uk9xC27FetZsshkt9WFFsxAIBo3vomxSy7fZEp2k8lasEkzBrftfLfon8muqgvHgnGyZL4gliImGj3h/JPDlW4Ez5hZxMdK9Tt2qFzItKEX5y+j48ePi+OJ6qKtQ8mOBfMnnX3tOCopfYezrswTFrLcHbsqxB/lRvD6b7fR3KKl4sMKm5I36CUuO2/hSvrn3ypxPAQavgsuGmRUJbJrCIRjwb6ONPn+Z8zTex8/saxwBDdhwX/+fcQsrSY+W7eREs7pceZgUzAcC45Pp+FjptL+A5Ui27xkHx/zy683GQPu3MJLz2+H90luPZDLbKadu/fR9/wtcAyX37FzL33DDVx19TFTLdERzubcYfkUl5QJafLrkOFYMPcf66VeRkmt+otM85IkRsiVnTcI9VL7ivURWBnkCC5bD3UsN5AYe64+Zgg+8k8VDcrN4+0dpOcNimPB4NzexldYBRgnlp0zGE24DMo5AWXF7MmFNOm+p4VYBORemTPemVzgSvDZBOpVXxrlP/ScqZZEIzcod4JzuUCJ4EAD49EKrpUl2uUa1YJLucBzwWgAMOPrPx0UrWAsIjGTpj8xz1RrNGhX5nggF3gqWGRCGk3i7hsWkPgSuUuDuk22b7RgCn7ltbeEXKNaMBs03N3JyoSDZ4JNuWPueFRcKGLB4jKKwyQl3pOViRaQBPytw6LBwSPv9SZzLTwRbModnfewqdaIcXcWGNVFOP3GSIBMbcKNHG6Fcb1eVmuuBZtyb817xNRqRMhre6MJFd80V4ItubZqARGTclXhWLAkc7H0dOjN9/H2tkanvZEb+GZDdt5giJsU2bE8wGl2OxJsyrU3aFVV1TQ2f6aYfsHIlluSMQYrO3cA4rgebcRlZMfyAtxKO5IctmA+CaZX8qbMMtUagYGRXXv2U+VPv4phQ7fgQRgxHhFKJnOGQe6Wbbulx/KCy9F1QyMoO38wwhbMNw+JKb1py/Y9plo1gQ8KAz+hCkaW/XH4L7O09zH4JnTfusjPHwxHVQRncOsOV9Fmzhgr0EF/oaiUZheWUCH/LJzngMJXafN3u8TxMGwZrmBkGgID7oW4Dtk5HNIla5izZ/ccCUY/MT6dWrYfRJtMIZhewSyAaOAEnZiOYdKC5hW7nzKaNaeEj9Xc79guQUPnpH/sSDAwJWMaxZKMWFH2EdfRmcanHe4FeTTpiYwLe9JTFY4FA0syZ7K9ulhZ9rEx8h+uZC1YgpDcVZrJDTDdE8qUj4UWHAB7dbHtlOQlK9dQXH3bsxS1oQUHwZSMhg9T7zU1x+n6YfnGg9my/WVowbUAydwZb99ziFgzIRZy6DrYQ8EAQtG41c8ITy7QghWjBStGC1ZMqIIxxW7vmYQi2L9MXRFTglGn4zWWmWJC1RIWTDDKYGwahNOj8YqYEoyV6Cxq+Zsf0LSCubx/B3N1UQDBkNsgg5LP60erP/yCRk14mLeH2bNxS8wIxjh0w+60jOVacecDz3KZNLGk9EzBLBJyWebaz9aL7Yhrhk42HiT3P7cqYkkw1i9MvOcp8b4VhuR2lNx6wEnBz+OBcV9rSm7ehz75vFxsQ2CNb1rX68Jf4+uGmKoiMP3vNw+ImDBllni4/FDlL+J1wewFFJ/YidZ+fipz123YSs1a8fGQvbqKCCAYoGFjybdwfWqPaQUv0e4fjH8JNr9kFa0oWyt+R6wr30opLbPrXi6IOcHAlDzaT3JNTY34if/vY8VXG76LnFwQrYKxyj2gYBBAsj2MzI1AtWAnugR3ptJVa4ScX38/HFwwsKqL8WdKRp0b0cy1iCrBLDOj3410NXelBuSMp/jmlxkSZftamJLtDd+68i2UEokGTUZUCYYM3G3FpxtyQl00aEqeMOVJ+vSLDZSCRSvRIBdElWA3QDKGSTHm4GTCVRVnjWAAyViGKnsvUpxVgqMRLVgxWrBitGDFaMGK0YIVowUrRgtWjBasGC1YMU2zjviEZY0isn78D43o8OjRWGtOAAAAAElFTkSuQmCC;" vertex="1" parent="1">
          <mxGeometry x="1100.0" y="500" width="75" height="75" as="geometry" />
      </mxCell>
    </object><object id="spine3" label="spine3">
      <mxCell style="shape=image;imageAlign=center;imageVerticalAlign=middle;labelPosition=left;align=right;verticalLabelPosition=top;spacingLeft=0;verticalAlign=bottom;spacingTop=0;spacing=0;image=data:image/png,iVBORw0KGgoAAAANSUhEUgAAAFgAAABYCAYAAABxlTA0AAAAAXNSR0IArs4c6QAAAARnQU1BAACxjwv8YQUAAAAJcEhZcwAAFxEAABcRAcom8z8AAAikSURBVHhe7ZwJbBRVGMe3pUBrASkUlVMpV6EUQSlCCqhEjbYiIQEUETFyVEAr3hDwquCFVE2EYoTWCBTk8KgmiBfGqDEoRbkE5JByWW9UtJTC5/d/MwPD8na7OzOvu4vvS35pd3bezPS337735r039flSskijiKZZf2nBKtGCFaMFK0YLVowWrBgtWDFasGK0YMVowYrRghUTlYIbX8IX1lv+XqwRVYKb9SFfYiYlpPYlX1IP+T6xRtQIhlxfF2rf4wbasHE7jc57lF+nyfeVgYyPS+cyncWHJI4n26+uiQrBpty0jFzavfcAIU6cOEE33jY1NMnnXkoJLfrSkFH308hx0ykzeyT5knvK961rIi7YytxuOSz3oJBrxQlm+JiHapfcqCc1aXcFVR2tFuUK5y7hMh3l+9Y1ERV8WuaeLtcKSB5Rm2QW3Ljt5VT582+izKw5xbx/J/m+dU3EBFtyOXP3VBwSYhBHzSw8Wm38tCKoZC3YjwDVwosvv04LFr0tft+6fQ/d9eBs8TsCdXLA6kILtgG5cWa1UHFK7qLlq1lKGyoqXiVe7913iHz1utJtEx8TrxGoLqQNnxZsg7tQPfuNoH0HK4UMxOIV75GvQQZLuYhKSt8V2yr2/0gNL8jmbe1ofP5Msc2K2yc/Tr6G3U8dUwu2kdCVcoffLUQgFiNzIfeci1lKOhUveUdsh+DElv2N7hZnrF3yHPQSErrxxZt3e1qwDVH/duL+6gx6lbPVl8RiIdesl88Q3KiXIdLXge6Z/jy9ULRUVB3o+548phYsoSHfbTXgrznGHSAX2wIJxnuQjP2R7Xa5QAuW0BT4DegEEyzK8P7+ZYAWHCK1CQ6EFhwiWrBiIi0YjafV4Mred4IWbMLnzhkxhdp1v150JT2T/L8XzI1mHN/8jJ1cIMpu2rqTUtsMNLLZC8laMAvmu8LSVe+LsojyjdupuVeSdRXBNO5F8Uk9xC27FetZsshkt9WFFsxAIBo3vomxSy7fZEp2k8lasEkzBrftfLfon8muqgvHgnGyZL4gliImGj3h/JPDlW4Ez5hZxMdK9Tt2qFzItKEX5y+j48ePi+OJ6qKtQ8mOBfMnnX3tOCopfYezrswTFrLcHbsqxB/lRvD6b7fR3KKl4sMKm5I36CUuO2/hSvrn3ypxPAQavgsuGmRUJbJrCIRjwb6ONPn+Z8zTex8/saxwBDdhwX/+fcQsrSY+W7eREs7pceZgUzAcC45Pp+FjptL+A5Ui27xkHx/zy683GQPu3MJLz2+H90luPZDLbKadu/fR9/wtcAyX37FzL33DDVx19TFTLdERzubcYfkUl5QJafLrkOFYMPcf66VeRkmt+otM85IkRsiVnTcI9VL7ivURWBnkCC5bD3UsN5AYe64+Zgg+8k8VDcrN4+0dpOcNimPB4NzexldYBRgnlp0zGE24DMo5AWXF7MmFNOm+p4VYBORemTPemVzgSvDZBOpVXxrlP/ScqZZEIzcod4JzuUCJ4EAD49EKrpUl2uUa1YJLucBzwWgAMOPrPx0UrWAsIjGTpj8xz1RrNGhX5nggF3gqWGRCGk3i7hsWkPgSuUuDuk22b7RgCn7ltbeEXKNaMBs03N3JyoSDZ4JNuWPueFRcKGLB4jKKwyQl3pOViRaQBPytw6LBwSPv9SZzLTwRbModnfewqdaIcXcWGNVFOP3GSIBMbcKNHG6Fcb1eVmuuBZtyb817xNRqRMhre6MJFd80V4ItubZqARGTclXhWLAkc7H0dOjN9/H2tkanvZEb+GZDdt5giJsU2bE8wGl2OxJsyrU3aFVV1TQ2f6aYfsHIlluSMQYrO3cA4rgebcRlZMfyAtxKO5IctmA+CaZX8qbMMtUagYGRXXv2U+VPv4phQ7fgQRgxHhFKJnOGQe6Wbbulx/KCy9F1QyMoO38wwhbMNw+JKb1py/Y9plo1gQ8KAz+hCkaW/XH4L7O09zH4JnTfusjPHwxHVQRncOsOV9Fmzhgr0EF/oaiUZheWUCH/LJzngMJXafN3u8TxMGwZrmBkGgID7oW4Dtk5HNIla5izZ/ccCUY/MT6dWrYfRJtMIZhewSyAaOAEnZiOYdKC5hW7nzKaNaeEj9Xc79guQUPnpH/sSDAwJWMaxZKMWFH2EdfRmcanHe4FeTTpiYwLe9JTFY4FA0syZ7K9ulhZ9rEx8h+uZC1YgpDcVZrJDTDdE8qUj4UWHAB7dbHtlOQlK9dQXH3bsxS1oQUHwZSMhg9T7zU1x+n6YfnGg9my/WVowbUAydwZb99ziFgzIRZy6DrYQ8EAQtG41c8ITy7QghWjBStGC1ZMqIIxxW7vmYQi2L9MXRFTglGn4zWWmWJC1RIWTDDKYGwahNOj8YqYEoyV6Cxq+Zsf0LSCubx/B3N1UQDBkNsgg5LP60erP/yCRk14mLeH2bNxS8wIxjh0w+60jOVacecDz3KZNLGk9EzBLBJyWebaz9aL7Yhrhk42HiT3P7cqYkkw1i9MvOcp8b4VhuR2lNx6wEnBz+OBcV9rSm7ehz75vFxsQ2CNb1rX68Jf4+uGmKoiMP3vNw+ImDBllni4/FDlL+J1wewFFJ/YidZ+fipz123YSs1a8fGQvbqKCCAYoGFjybdwfWqPaQUv0e4fjH8JNr9kFa0oWyt+R6wr30opLbPrXi6IOcHAlDzaT3JNTY34if/vY8VXG76LnFwQrYKxyj2gYBBAsj2MzI1AtWAnugR3ptJVa4ScX38/HFwwsKqL8WdKRp0b0cy1iCrBLDOj3410NXelBuSMp/jmlxkSZftamJLtDd+68i2UEokGTUZUCYYM3G3FpxtyQl00aEqeMOVJ+vSLDZSCRSvRIBdElWA3QDKGSTHm4GTCVRVnjWAAyViGKnsvUpxVgqMRLVgxWrBitGDFaMGK0YIVowUrRgtWjBasGC1YMU2zjviEZY0isn78D43o8OjRWGtOAAAAAElFTkSuQmCC;" vertex="1" parent="1">
          <mxGeometry x="1300.0" y="500" width="75" height="75" as="geometry" />
      </mxCell>
    </object><object id="spine4" label="spine4">
      <mxCell style="shape=image;imageAlign=center;imageVerticalAlign=middle;labelPosition=left;align=right;verticalLabelPosition=top;spacingLeft=0;verticalAlign=bottom;spacingTop=0;spacing=0;image=data:image/png,iVBORw0KGgoAAAANSUhEUgAAAFgAAABYCAYAAABxlTA0AAAAAXNSR0IArs4c6QAAAARnQU1BAACxjwv8YQUAAAAJcEhZcwAAFxEAABcRAcom8z8AAAikSURBVHhe7ZwJbBRVGMe3pUBrASkUlVMpV6EUQSlCCqhEjbYiIQEUETFyVEAr3hDwquCFVE2EYoTWCBTk8KgmiBfGqDEoRbkE5JByWW9UtJTC5/d/MwPD8na7OzOvu4vvS35pd3bezPS337735r039flSskijiKZZf2nBKtGCFaMFK0YLVowWrBgtWDFasGK0YMVowYrRghUTlYIbX8IX1lv+XqwRVYKb9SFfYiYlpPYlX1IP+T6xRtQIhlxfF2rf4wbasHE7jc57lF+nyfeVgYyPS+cyncWHJI4n26+uiQrBpty0jFzavfcAIU6cOEE33jY1NMnnXkoJLfrSkFH308hx0ykzeyT5knvK961rIi7YytxuOSz3oJBrxQlm+JiHapfcqCc1aXcFVR2tFuUK5y7hMh3l+9Y1ERV8WuaeLtcKSB5Rm2QW3Ljt5VT582+izKw5xbx/J/m+dU3EBFtyOXP3VBwSYhBHzSw8Wm38tCKoZC3YjwDVwosvv04LFr0tft+6fQ/d9eBs8TsCdXLA6kILtgG5cWa1UHFK7qLlq1lKGyoqXiVe7913iHz1utJtEx8TrxGoLqQNnxZsg7tQPfuNoH0HK4UMxOIV75GvQQZLuYhKSt8V2yr2/0gNL8jmbe1ofP5Msc2K2yc/Tr6G3U8dUwu2kdCVcoffLUQgFiNzIfeci1lKOhUveUdsh+DElv2N7hZnrF3yHPQSErrxxZt3e1qwDVH/duL+6gx6lbPVl8RiIdesl88Q3KiXIdLXge6Z/jy9ULRUVB3o+548phYsoSHfbTXgrznGHSAX2wIJxnuQjP2R7Xa5QAuW0BT4DegEEyzK8P7+ZYAWHCK1CQ6EFhwiWrBiIi0YjafV4Mred4IWbMLnzhkxhdp1v150JT2T/L8XzI1mHN/8jJ1cIMpu2rqTUtsMNLLZC8laMAvmu8LSVe+LsojyjdupuVeSdRXBNO5F8Uk9xC27FetZsshkt9WFFsxAIBo3vomxSy7fZEp2k8lasEkzBrftfLfon8muqgvHgnGyZL4gliImGj3h/JPDlW4Ez5hZxMdK9Tt2qFzItKEX5y+j48ePi+OJ6qKtQ8mOBfMnnX3tOCopfYezrswTFrLcHbsqxB/lRvD6b7fR3KKl4sMKm5I36CUuO2/hSvrn3ypxPAQavgsuGmRUJbJrCIRjwb6ONPn+Z8zTex8/saxwBDdhwX/+fcQsrSY+W7eREs7pceZgUzAcC45Pp+FjptL+A5Ui27xkHx/zy683GQPu3MJLz2+H90luPZDLbKadu/fR9/wtcAyX37FzL33DDVx19TFTLdERzubcYfkUl5QJafLrkOFYMPcf66VeRkmt+otM85IkRsiVnTcI9VL7ivURWBnkCC5bD3UsN5AYe64+Zgg+8k8VDcrN4+0dpOcNimPB4NzexldYBRgnlp0zGE24DMo5AWXF7MmFNOm+p4VYBORemTPemVzgSvDZBOpVXxrlP/ScqZZEIzcod4JzuUCJ4EAD49EKrpUl2uUa1YJLucBzwWgAMOPrPx0UrWAsIjGTpj8xz1RrNGhX5nggF3gqWGRCGk3i7hsWkPgSuUuDuk22b7RgCn7ltbeEXKNaMBs03N3JyoSDZ4JNuWPueFRcKGLB4jKKwyQl3pOViRaQBPytw6LBwSPv9SZzLTwRbModnfewqdaIcXcWGNVFOP3GSIBMbcKNHG6Fcb1eVmuuBZtyb817xNRqRMhre6MJFd80V4ItubZqARGTclXhWLAkc7H0dOjN9/H2tkanvZEb+GZDdt5giJsU2bE8wGl2OxJsyrU3aFVV1TQ2f6aYfsHIlluSMQYrO3cA4rgebcRlZMfyAtxKO5IctmA+CaZX8qbMMtUagYGRXXv2U+VPv4phQ7fgQRgxHhFKJnOGQe6Wbbulx/KCy9F1QyMoO38wwhbMNw+JKb1py/Y9plo1gQ8KAz+hCkaW/XH4L7O09zH4JnTfusjPHwxHVQRncOsOV9Fmzhgr0EF/oaiUZheWUCH/LJzngMJXafN3u8TxMGwZrmBkGgID7oW4Dtk5HNIla5izZ/ccCUY/MT6dWrYfRJtMIZhewSyAaOAEnZiOYdKC5hW7nzKaNaeEj9Xc79guQUPnpH/sSDAwJWMaxZKMWFH2EdfRmcanHe4FeTTpiYwLe9JTFY4FA0syZ7K9ulhZ9rEx8h+uZC1YgpDcVZrJDTDdE8qUj4UWHAB7dbHtlOQlK9dQXH3bsxS1oQUHwZSMhg9T7zU1x+n6YfnGg9my/WVowbUAydwZb99ziFgzIRZy6DrYQ8EAQtG41c8ITy7QghWjBStGC1ZMqIIxxW7vmYQi2L9MXRFTglGn4zWWmWJC1RIWTDDKYGwahNOj8YqYEoyV6Cxq+Zsf0LSCubx/B3N1UQDBkNsgg5LP60erP/yCRk14mLeH2bNxS8wIxjh0w+60jOVacecDz3KZNLGk9EzBLBJyWebaz9aL7Yhrhk42HiT3P7cqYkkw1i9MvOcp8b4VhuR2lNx6wEnBz+OBcV9rSm7ehz75vFxsQ2CNb1rX68Jf4+uGmKoiMP3vNw+ImDBllni4/FDlL+J1wewFFJ/YidZ+fipz123YSs1a8fGQvbqKCCAYoGFjybdwfWqPaQUv0e4fjH8JNr9kFa0oWyt+R6wr30opLbPrXi6IOcHAlDzaT3JNTY34if/vY8VXG76LnFwQrYKxyj2gYBBAsj2MzI1AtWAnugR3ptJVa4ScX38/HFwwsKqL8WdKRp0b0cy1iCrBLDOj3410NXelBuSMp/jmlxkSZftamJLtDd+68i2UEokGTUZUCYYM3G3FpxtyQl00aEqeMOVJ+vSLDZSCRSvRIBdElWA3QDKGSTHm4GTCVRVnjWAAyViGKnsvUpxVgqMRLVgxWrBitGDFaMGK0YIVowUrRgtWjBasGC1YMU2zjviEZY0isn78D43o8OjRWGtOAAAAAElFTkSuQmCC;" vertex="1" parent="1">
          <mxGeometry x="1500.0" y="500" width="75" height="75" as="geometry" />
      </mxCell>
    </object><object id="superspine1" label="superspine1">
      <mxCell style="shape=image;imageAlign=center;imageVerticalAlign=middle;labelPosition=left;align=right;verticalLabelPosition=top;spacingLeft=0;verticalAlign=bottom;spacingTop=0;spacing=0;image=data:image/png,iVBORw0KGgoAAAANSUhEUgAAAFgAAABYCAYAAABxlTA0AAAAAXNSR0IArs4c6QAAAARnQU1BAACxjwv8YQUAAAAJcEhZcwAAFxEAABcRAcom8z8AAAikSURBVHhe7ZwJbBRVGMe3pUBrASkUlVMpV6EUQSlCCqhEjbYiIQEUETFyVEAr3hDwquCFVE2EYoTWCBTk8KgmiBfGqDEoRbkE5JByWW9UtJTC5/d/MwPD8na7OzOvu4vvS35pd3bezPS337735r039flSskijiKZZf2nBKtGCFaMFK0YLVowWrBgtWDFasGK0YMVowYrRghUTlYIbX8IX1lv+XqwRVYKb9SFfYiYlpPYlX1IP+T6xRtQIhlxfF2rf4wbasHE7jc57lF+nyfeVgYyPS+cyncWHJI4n26+uiQrBpty0jFzavfcAIU6cOEE33jY1NMnnXkoJLfrSkFH308hx0ykzeyT5knvK961rIi7YytxuOSz3oJBrxQlm+JiHapfcqCc1aXcFVR2tFuUK5y7hMh3l+9Y1ERV8WuaeLtcKSB5Rm2QW3Ljt5VT582+izKw5xbx/J/m+dU3EBFtyOXP3VBwSYhBHzSw8Wm38tCKoZC3YjwDVwosvv04LFr0tft+6fQ/d9eBs8TsCdXLA6kILtgG5cWa1UHFK7qLlq1lKGyoqXiVe7913iHz1utJtEx8TrxGoLqQNnxZsg7tQPfuNoH0HK4UMxOIV75GvQQZLuYhKSt8V2yr2/0gNL8jmbe1ofP5Msc2K2yc/Tr6G3U8dUwu2kdCVcoffLUQgFiNzIfeci1lKOhUveUdsh+DElv2N7hZnrF3yHPQSErrxxZt3e1qwDVH/duL+6gx6lbPVl8RiIdesl88Q3KiXIdLXge6Z/jy9ULRUVB3o+548phYsoSHfbTXgrznGHSAX2wIJxnuQjP2R7Xa5QAuW0BT4DegEEyzK8P7+ZYAWHCK1CQ6EFhwiWrBiIi0YjafV4Mred4IWbMLnzhkxhdp1v150JT2T/L8XzI1mHN/8jJ1cIMpu2rqTUtsMNLLZC8laMAvmu8LSVe+LsojyjdupuVeSdRXBNO5F8Uk9xC27FetZsshkt9WFFsxAIBo3vomxSy7fZEp2k8lasEkzBrftfLfon8muqgvHgnGyZL4gliImGj3h/JPDlW4Ez5hZxMdK9Tt2qFzItKEX5y+j48ePi+OJ6qKtQ8mOBfMnnX3tOCopfYezrswTFrLcHbsqxB/lRvD6b7fR3KKl4sMKm5I36CUuO2/hSvrn3ypxPAQavgsuGmRUJbJrCIRjwb6ONPn+Z8zTex8/saxwBDdhwX/+fcQsrSY+W7eREs7pceZgUzAcC45Pp+FjptL+A5Ui27xkHx/zy683GQPu3MJLz2+H90luPZDLbKadu/fR9/wtcAyX37FzL33DDVx19TFTLdERzubcYfkUl5QJafLrkOFYMPcf66VeRkmt+otM85IkRsiVnTcI9VL7ivURWBnkCC5bD3UsN5AYe64+Zgg+8k8VDcrN4+0dpOcNimPB4NzexldYBRgnlp0zGE24DMo5AWXF7MmFNOm+p4VYBORemTPemVzgSvDZBOpVXxrlP/ScqZZEIzcod4JzuUCJ4EAD49EKrpUl2uUa1YJLucBzwWgAMOPrPx0UrWAsIjGTpj8xz1RrNGhX5nggF3gqWGRCGk3i7hsWkPgSuUuDuk22b7RgCn7ltbeEXKNaMBs03N3JyoSDZ4JNuWPueFRcKGLB4jKKwyQl3pOViRaQBPytw6LBwSPv9SZzLTwRbModnfewqdaIcXcWGNVFOP3GSIBMbcKNHG6Fcb1eVmuuBZtyb817xNRqRMhre6MJFd80V4ItubZqARGTclXhWLAkc7H0dOjN9/H2tkanvZEb+GZDdt5giJsU2bE8wGl2OxJsyrU3aFVV1TQ2f6aYfsHIlluSMQYrO3cA4rgebcRlZMfyAtxKO5IctmA+CaZX8qbMMtUagYGRXXv2U+VPv4phQ7fgQRgxHhFKJnOGQe6Wbbulx/KCy9F1QyMoO38wwhbMNw+JKb1py/Y9plo1gQ8KAz+hCkaW/XH4L7O09zH4JnTfusjPHwxHVQRncOsOV9Fmzhgr0EF/oaiUZheWUCH/LJzngMJXafN3u8TxMGwZrmBkGgID7oW4Dtk5HNIla5izZ/ccCUY/MT6dWrYfRJtMIZhewSyAaOAEnZiOYdKC5hW7nzKaNaeEj9Xc79guQUPnpH/sSDAwJWMaxZKMWFH2EdfRmcanHe4FeTTpiYwLe9JTFY4FA0syZ7K9ulhZ9rEx8h+uZC1YgpDcVZrJDTDdE8qUj4UWHAB7dbHtlOQlK9dQXH3bsxS1oQUHwZSMhg9T7zU1x+n6YfnGg9my/WVowbUAydwZb99ziFgzIRZy6DrYQ8EAQtG41c8ITy7QghWjBStGC1ZMqIIxxW7vmYQi2L9MXRFTglGn4zWWmWJC1RIWTDDKYGwahNOj8YqYEoyV6Cxq+Zsf0LSCubx/B3N1UQDBkNsgg5LP60erP/yCRk14mLeH2bNxS8wIxjh0w+60jOVacecDz3KZNLGk9EzBLBJyWebaz9aL7Yhrhk42HiT3P7cqYkkw1i9MvOcp8b4VhuR2lNx6wEnBz+OBcV9rSm7ehz75vFxsQ2CNb1rX68Jf4+uGmKoiMP3vNw+ImDBllni4/FDlL+J1wewFFJ/YidZ+fipz123YSs1a8fGQvbqKCCAYoGFjybdwfWqPaQUv0e4fjH8JNr9kFa0oWyt+R6wr30opLbPrXi6IOcHAlDzaT3JNTY34if/vY8VXG76LnFwQrYKxyj2gYBBAsj2MzI1AtWAnugR3ptJVa4ScX38/HFwwsKqL8WdKRp0b0cy1iCrBLDOj3410NXelBuSMp/jmlxkSZftamJLtDd+68i2UEokGTUZUCYYM3G3FpxtyQl00aEqeMOVJ+vSLDZSCRSvRIBdElWA3QDKGSTHm4GTCVRVnjWAAyViGKnsvUpxVgqMRLVgxWrBitGDFaMGK0YIVowUrRgtWjBasGC1YMU2zjviEZY0isn78D43o8OjRWGtOAAAAAElFTkSuQmCC;" vertex="1" parent="1">
          <mxGeometry x="1100.0" y="700" width="75" height="75" as="geometry" />
      </mxCell>
    </object><object id="superspine2" label="superspine2">
      <mxCell style="shape=image;imageAlign=center;imageVerticalAlign=middle;labelPosition=left;align=right;verticalLabelPosition=top;spacingLeft=0;verticalAlign=bottom;spacingTop=0;spacing=0;image=data:image/png,iVBORw0KGgoAAAANSUhEUgAAAFgAAABYCAYAAABxlTA0AAAAAXNSR0IArs4c6QAAAARnQU1BAACxjwv8YQUAAAAJcEhZcwAAFxEAABcRAcom8z8AAAikSURBVHhe7ZwJbBRVGMe3pUBrASkUlVMpV6EUQSlCCqhEjbYiIQEUETFyVEAr3hDwquCFVE2EYoTWCBTk8KgmiBfGqDEoRbkE5JByWW9UtJTC5/d/MwPD8na7OzOvu4vvS35pd3bezPS337735r039flSskijiKZZf2nBKtGCFaMFK0YLVowWrBgtWDFasGK0YMVowYrRghUTlYIbX8IX1lv+XqwRVYKb9SFfYiYlpPYlX1IP+T6xRtQIhlxfF2rf4wbasHE7jc57lF+nyfeVgYyPS+cyncWHJI4n26+uiQrBpty0jFzavfcAIU6cOEE33jY1NMnnXkoJLfrSkFH308hx0ykzeyT5knvK961rIi7YytxuOSz3oJBrxQlm+JiHapfcqCc1aXcFVR2tFuUK5y7hMh3l+9Y1ERV8WuaeLtcKSB5Rm2QW3Ljt5VT582+izKw5xbx/J/m+dU3EBFtyOXP3VBwSYhBHzSw8Wm38tCKoZC3YjwDVwosvv04LFr0tft+6fQ/d9eBs8TsCdXLA6kILtgG5cWa1UHFK7qLlq1lKGyoqXiVe7913iHz1utJtEx8TrxGoLqQNnxZsg7tQPfuNoH0HK4UMxOIV75GvQQZLuYhKSt8V2yr2/0gNL8jmbe1ofP5Msc2K2yc/Tr6G3U8dUwu2kdCVcoffLUQgFiNzIfeci1lKOhUveUdsh+DElv2N7hZnrF3yHPQSErrxxZt3e1qwDVH/duL+6gx6lbPVl8RiIdesl88Q3KiXIdLXge6Z/jy9ULRUVB3o+548phYsoSHfbTXgrznGHSAX2wIJxnuQjP2R7Xa5QAuW0BT4DegEEyzK8P7+ZYAWHCK1CQ6EFhwiWrBiIi0YjafV4Mred4IWbMLnzhkxhdp1v150JT2T/L8XzI1mHN/8jJ1cIMpu2rqTUtsMNLLZC8laMAvmu8LSVe+LsojyjdupuVeSdRXBNO5F8Uk9xC27FetZsshkt9WFFsxAIBo3vomxSy7fZEp2k8lasEkzBrftfLfon8muqgvHgnGyZL4gliImGj3h/JPDlW4Ez5hZxMdK9Tt2qFzItKEX5y+j48ePi+OJ6qKtQ8mOBfMnnX3tOCopfYezrswTFrLcHbsqxB/lRvD6b7fR3KKl4sMKm5I36CUuO2/hSvrn3ypxPAQavgsuGmRUJbJrCIRjwb6ONPn+Z8zTex8/saxwBDdhwX/+fcQsrSY+W7eREs7pceZgUzAcC45Pp+FjptL+A5Ui27xkHx/zy683GQPu3MJLz2+H90luPZDLbKadu/fR9/wtcAyX37FzL33DDVx19TFTLdERzubcYfkUl5QJafLrkOFYMPcf66VeRkmt+otM85IkRsiVnTcI9VL7ivURWBnkCC5bD3UsN5AYe64+Zgg+8k8VDcrN4+0dpOcNimPB4NzexldYBRgnlp0zGE24DMo5AWXF7MmFNOm+p4VYBORemTPemVzgSvDZBOpVXxrlP/ScqZZEIzcod4JzuUCJ4EAD49EKrpUl2uUa1YJLucBzwWgAMOPrPx0UrWAsIjGTpj8xz1RrNGhX5nggF3gqWGRCGk3i7hsWkPgSuUuDuk22b7RgCn7ltbeEXKNaMBs03N3JyoSDZ4JNuWPueFRcKGLB4jKKwyQl3pOViRaQBPytw6LBwSPv9SZzLTwRbModnfewqdaIcXcWGNVFOP3GSIBMbcKNHG6Fcb1eVmuuBZtyb817xNRqRMhre6MJFd80V4ItubZqARGTclXhWLAkc7H0dOjN9/H2tkanvZEb+GZDdt5giJsU2bE8wGl2OxJsyrU3aFVV1TQ2f6aYfsHIlluSMQYrO3cA4rgebcRlZMfyAtxKO5IctmA+CaZX8qbMMtUagYGRXXv2U+VPv4phQ7fgQRgxHhFKJnOGQe6Wbbulx/KCy9F1QyMoO38wwhbMNw+JKb1py/Y9plo1gQ8KAz+hCkaW/XH4L7O09zH4JnTfusjPHwxHVQRncOsOV9Fmzhgr0EF/oaiUZheWUCH/LJzngMJXafN3u8TxMGwZrmBkGgID7oW4Dtk5HNIla5izZ/ccCUY/MT6dWrYfRJtMIZhewSyAaOAEnZiOYdKC5hW7nzKaNaeEj9Xc79guQUPnpH/sSDAwJWMaxZKMWFH2EdfRmcanHe4FeTTpiYwLe9JTFY4FA0syZ7K9ulhZ9rEx8h+uZC1YgpDcVZrJDTDdE8qUj4UWHAB7dbHtlOQlK9dQXH3bsxS1oQUHwZSMhg9T7zU1x+n6YfnGg9my/WVowbUAydwZb99ziFgzIRZy6DrYQ8EAQtG41c8ITy7QghWjBStGC1ZMqIIxxW7vmYQi2L9MXRFTglGn4zWWmWJC1RIWTDDKYGwahNOj8YqYEoyV6Cxq+Zsf0LSCubx/B3N1UQDBkNsgg5LP60erP/yCRk14mLeH2bNxS8wIxjh0w+60jOVacecDz3KZNLGk9EzBLBJyWebaz9aL7Yhrhk42HiT3P7cqYkkw1i9MvOcp8b4VhuR2lNx6wEnBz+OBcV9rSm7ehz75vFxsQ2CNb1rX68Jf4+uGmKoiMP3vNw+ImDBllni4/FDlL+J1wewFFJ/YidZ+fipz123YSs1a8fGQvbqKCCAYoGFjybdwfWqPaQUv0e4fjH8JNr9kFa0oWyt+R6wr30opLbPrXi6IOcHAlDzaT3JNTY34if/vY8VXG76LnFwQrYKxyj2gYBBAsj2MzI1AtWAnugR3ptJVa4ScX38/HFwwsKqL8WdKRp0b0cy1iCrBLDOj3410NXelBuSMp/jmlxkSZftamJLtDd+68i2UEokGTUZUCYYM3G3FpxtyQl00aEqeMOVJ+vSLDZSCRSvRIBdElWA3QDKGSTHm4GTCVRVnjWAAyViGKnsvUpxVgqMRLVgxWrBitGDFaMGK0YIVowUrRgtWjBasGC1YMU2zjviEZY0isn78D43o8OjRWGtOAAAAAElFTkSuQmCC;" vertex="1" parent="1">
          <mxGeometry x="1300.0" y="700" width="75" height="75" as="geometry" />
      </mxCell>
    </object><object id="client1" label="client1">
      <mxCell style="shape=image;imageAlign=center;imageVerticalAlign=middle;labelPosition=left;align=right;verticalLabelPosition=top;spacingLeft=0;verticalAlign=bottom;spacingTop=0;spacing=0;image=data:image/png,iVBORw0KGgoAAAANSUhEUgAAAFgAAABYCAYAAABxlTA0AAAAAXNSR0IArs4c6QAAAARnQU1BAACxjwv8YQUAAAAJcEhZcwAAFxEAABcRAcom8z8AAAikSURBVHhe7ZwJbBRVGMe3pUBrASkUlVMpV6EUQSlCCqhEjbYiIQEUETFyVEAr3hDwquCFVE2EYoTWCBTk8KgmiBfGqDEoRbkE5JByWW9UtJTC5/d/MwPD8na7OzOvu4vvS35pd3bezPS337735r039flSskijiKZZf2nBKtGCFaMFK0YLVowWrBgtWDFasGK0YMVowYrRghUTlYIbX8IX1lv+XqwRVYKb9SFfYiYlpPYlX1IP+T6xRtQIhlxfF2rf4wbasHE7jc57lF+nyfeVgYyPS+cyncWHJI4n26+uiQrBpty0jFzavfcAIU6cOEE33jY1NMnnXkoJLfrSkFH308hx0ykzeyT5knvK961rIi7YytxuOSz3oJBrxQlm+JiHapfcqCc1aXcFVR2tFuUK5y7hMh3l+9Y1ERV8WuaeLtcKSB5Rm2QW3Ljt5VT582+izKw5xbx/J/m+dU3EBFtyOXP3VBwSYhBHzSw8Wm38tCKoZC3YjwDVwosvv04LFr0tft+6fQ/d9eBs8TsCdXLA6kILtgG5cWa1UHFK7qLlq1lKGyoqXiVe7913iHz1utJtEx8TrxGoLqQNnxZsg7tQPfuNoH0HK4UMxOIV75GvQQZLuYhKSt8V2yr2/0gNL8jmbe1ofP5Msc2K2yc/Tr6G3U8dUwu2kdCVcoffLUQgFiNzIfeci1lKOhUveUdsh+DElv2N7hZnrF3yHPQSErrxxZt3e1qwDVH/duL+6gx6lbPVl8RiIdesl88Q3KiXIdLXge6Z/jy9ULRUVB3o+548phYsoSHfbTXgrznGHSAX2wIJxnuQjP2R7Xa5QAuW0BT4DegEEyzK8P7+ZYAWHCK1CQ6EFhwiWrBiIi0YjafV4Mred4IWbMLnzhkxhdp1v150JT2T/L8XzI1mHN/8jJ1cIMpu2rqTUtsMNLLZC8laMAvmu8LSVe+LsojyjdupuVeSdRXBNO5F8Uk9xC27FetZsshkt9WFFsxAIBo3vomxSy7fZEp2k8lasEkzBrftfLfon8muqgvHgnGyZL4gliImGj3h/JPDlW4Ez5hZxMdK9Tt2qFzItKEX5y+j48ePi+OJ6qKtQ8mOBfMnnX3tOCopfYezrswTFrLcHbsqxB/lRvD6b7fR3KKl4sMKm5I36CUuO2/hSvrn3ypxPAQavgsuGmRUJbJrCIRjwb6ONPn+Z8zTex8/saxwBDdhwX/+fcQsrSY+W7eREs7pceZgUzAcC45Pp+FjptL+A5Ui27xkHx/zy683GQPu3MJLz2+H90luPZDLbKadu/fR9/wtcAyX37FzL33DDVx19TFTLdERzubcYfkUl5QJafLrkOFYMPcf66VeRkmt+otM85IkRsiVnTcI9VL7ivURWBnkCC5bD3UsN5AYe64+Zgg+8k8VDcrN4+0dpOcNimPB4NzexldYBRgnlp0zGE24DMo5AWXF7MmFNOm+p4VYBORemTPemVzgSvDZBOpVXxrlP/ScqZZEIzcod4JzuUCJ4EAD49EKrpUl2uUa1YJLucBzwWgAMOPrPx0UrWAsIjGTpj8xz1RrNGhX5nggF3gqWGRCGk3i7hsWkPgSuUuDuk22b7RgCn7ltbeEXKNaMBs03N3JyoSDZ4JNuWPueFRcKGLB4jKKwyQl3pOViRaQBPytw6LBwSPv9SZzLTwRbModnfewqdaIcXcWGNVFOP3GSIBMbcKNHG6Fcb1eVmuuBZtyb817xNRqRMhre6MJFd80V4ItubZqARGTclXhWLAkc7H0dOjN9/H2tkanvZEb+GZDdt5giJsU2bE8wGl2OxJsyrU3aFVV1TQ2f6aYfsHIlluSMQYrO3cA4rgebcRlZMfyAtxKO5IctmA+CaZX8qbMMtUagYGRXXv2U+VPv4phQ7fgQRgxHhFKJnOGQe6Wbbulx/KCy9F1QyMoO38wwhbMNw+JKb1py/Y9plo1gQ8KAz+hCkaW/XH4L7O09zH4JnTfusjPHwxHVQRncOsOV9Fmzhgr0EF/oaiUZheWUCH/LJzngMJXafN3u8TxMGwZrmBkGgID7oW4Dtk5HNIla5izZ/ccCUY/MT6dWrYfRJtMIZhewSyAaOAEnZiOYdKC5hW7nzKaNaeEj9Xc79guQUPnpH/sSDAwJWMaxZKMWFH2EdfRmcanHe4FeTTpiYwLe9JTFY4FA0syZ7K9ulhZ9rEx8h+uZC1YgpDcVZrJDTDdE8qUj4UWHAB7dbHtlOQlK9dQXH3bsxS1oQUHwZSMhg9T7zU1x+n6YfnGg9my/WVowbUAydwZb99ziFgzIRZy6DrYQ8EAQtG41c8ITy7QghWjBStGC1ZMqIIxxW7vmYQi2L9MXRFTglGn4zWWmWJC1RIWTDDKYGwahNOj8YqYEoyV6Cxq+Zsf0LSCubx/B3N1UQDBkNsgg5LP60erP/yCRk14mLeH2bNxS8wIxjh0w+60jOVacecDz3KZNLGk9EzBLBJyWebaz9aL7Yhrhk42HiT3P7cqYkkw1i9MvOcp8b4VhuR2lNx6wEnBz+OBcV9rSm7ehz75vFxsQ2CNb1rX68Jf4+uGmKoiMP3vNw+ImDBllni4/FDlL+J1wewFFJ/YidZ+fipz123YSs1a8fGQvbqKCCAYoGFjybdwfWqPaQUv0e4fjH8JNr9kFa0oWyt+R6wr30opLbPrXi6IOcHAlDzaT3JNTY34if/vY8VXG76LnFwQrYKxyj2gYBBAsj2MzI1AtWAnugR3ptJVa4ScX38/HFwwsKqL8WdKRp0b0cy1iCrBLDOj3410NXelBuSMp/jmlxkSZftamJLtDd+68i2UEokGTUZUCYYM3G3FpxtyQl00aEqeMOVJ+vSLDZSCRSvRIBdElWA3QDKGSTHm4GTCVRVnjWAAyViGKnsvUpxVgqMRLVgxWrBitGDFaMGK0YIVowUrRgtWjBasGC1YMU2zjviEZY0isn78D43o8OjRWGtOAAAAAElFTkSuQmCC;" vertex="1" parent="1">
          <mxGeometry x="900.0" y="100" width="75" height="75" as="geometry" />
      </mxCell>
    </object><object id="client2" label="client2">
      <mxCell style="shape=image;imageAlign=center;imageVerticalAlign=middle;labelPosition=left;align=right;verticalLabelPosition=top;spacingLeft=0;verticalAlign=bottom;spacingTop=0;spacing=0;image=data:image/png,iVBORw0KGgoAAAANSUhEUgAAAFgAAABYCAYAAABxlTA0AAAAAXNSR0IArs4c6QAAAARnQU1BAACxjwv8YQUAAAAJcEhZcwAAFxEAABcRAcom8z8AAAikSURBVHhe7ZwJbBRVGMe3pUBrASkUlVMpV6EUQSlCCqhEjbYiIQEUETFyVEAr3hDwquCFVE2EYoTWCBTk8KgmiBfGqDEoRbkE5JByWW9UtJTC5/d/MwPD8na7OzOvu4vvS35pd3bezPS337735r039flSskijiKZZf2nBKtGCFaMFK0YLVowWrBgtWDFasGK0YMVowYrRghUTlYIbX8IX1lv+XqwRVYKb9SFfYiYlpPYlX1IP+T6xRtQIhlxfF2rf4wbasHE7jc57lF+nyfeVgYyPS+cyncWHJI4n26+uiQrBpty0jFzavfcAIU6cOEE33jY1NMnnXkoJLfrSkFH308hx0ykzeyT5knvK961rIi7YytxuOSz3oJBrxQlm+JiHapfcqCc1aXcFVR2tFuUK5y7hMh3l+9Y1ERV8WuaeLtcKSB5Rm2QW3Ljt5VT582+izKw5xbx/J/m+dU3EBFtyOXP3VBwSYhBHzSw8Wm38tCKoZC3YjwDVwosvv04LFr0tft+6fQ/d9eBs8TsCdXLA6kILtgG5cWa1UHFK7qLlq1lKGyoqXiVe7913iHz1utJtEx8TrxGoLqQNnxZsg7tQPfuNoH0HK4UMxOIV75GvQQZLuYhKSt8V2yr2/0gNL8jmbe1ofP5Msc2K2yc/Tr6G3U8dUwu2kdCVcoffLUQgFiNzIfeci1lKOhUveUdsh+DElv2N7hZnrF3yHPQSErrxxZt3e1qwDVH/duL+6gx6lbPVl8RiIdesl88Q3KiXIdLXge6Z/jy9ULRUVB3o+548phYsoSHfbTXgrznGHSAX2wIJxnuQjP2R7Xa5QAuW0BT4DegEEyzK8P7+ZYAWHCK1CQ6EFhwiWrBiIi0YjafV4Mred4IWbMLnzhkxhdp1v150JT2T/L8XzI1mHN/8jJ1cIMpu2rqTUtsMNLLZC8laMAvmu8LSVe+LsojyjdupuVeSdRXBNO5F8Uk9xC27FetZsshkt9WFFsxAIBo3vomxSy7fZEp2k8lasEkzBrftfLfon8muqgvHgnGyZL4gliImGj3h/JPDlW4Ez5hZxMdK9Tt2qFzItKEX5y+j48ePi+OJ6qKtQ8mOBfMnnX3tOCopfYezrswTFrLcHbsqxB/lRvD6b7fR3KKl4sMKm5I36CUuO2/hSvrn3ypxPAQavgsuGmRUJbJrCIRjwb6ONPn+Z8zTex8/saxwBDdhwX/+fcQsrSY+W7eREs7pceZgUzAcC45Pp+FjptL+A5Ui27xkHx/zy683GQPu3MJLz2+H90luPZDLbKadu/fR9/wtcAyX37FzL33DDVx19TFTLdERzubcYfkUl5QJafLrkOFYMPcf66VeRkmt+otM85IkRsiVnTcI9VL7ivURWBnkCC5bD3UsN5AYe64+Zgg+8k8VDcrN4+0dpOcNimPB4NzexldYBRgnlp0zGE24DMo5AWXF7MmFNOm+p4VYBORemTPemVzgSvDZBOpVXxrlP/ScqZZEIzcod4JzuUCJ4EAD49EKrpUl2uUa1YJLucBzwWgAMOPrPx0UrWAsIjGTpj8xz1RrNGhX5nggF3gqWGRCGk3i7hsWkPgSuUuDuk22b7RgCn7ltbeEXKNaMBs03N3JyoSDZ4JNuWPueFRcKGLB4jKKwyQl3pOViRaQBPytw6LBwSPv9SZzLTwRbModnfewqdaIcXcWGNVFOP3GSIBMbcKNHG6Fcb1eVmuuBZtyb817xNRqRMhre6MJFd80V4ItubZqARGTclXhWLAkc7H0dOjN9/H2tkanvZEb+GZDdt5giJsU2bE8wGl2OxJsyrU3aFVV1TQ2f6aYfsHIlluSMQYrO3cA4rgebcRlZMfyAtxKO5IctmA+CaZX8qbMMtUagYGRXXv2U+VPv4phQ7fgQRgxHhFKJnOGQe6Wbbulx/KCy9F1QyMoO38wwhbMNw+JKb1py/Y9plo1gQ8KAz+hCkaW/XH4L7O09zH4JnTfusjPHwxHVQRncOsOV9Fmzhgr0EF/oaiUZheWUCH/LJzngMJXafN3u8TxMGwZrmBkGgID7oW4Dtk5HNIla5izZ/ccCUY/MT6dWrYfRJtMIZhewSyAaOAEnZiOYdKC5hW7nzKaNaeEj9Xc79guQUPnpH/sSDAwJWMaxZKMWFH2EdfRmcanHe4FeTTpiYwLe9JTFY4FA0syZ7K9ulhZ9rEx8h+uZC1YgpDcVZrJDTDdE8qUj4UWHAB7dbHtlOQlK9dQXH3bsxS1oQUHwZSMhg9T7zU1x+n6YfnGg9my/WVowbUAydwZb99ziFgzIRZy6DrYQ8EAQtG41c8ITy7QghWjBStGC1ZMqIIxxW7vmYQi2L9MXRFTglGn4zWWmWJC1RIWTDDKYGwahNOj8YqYEoyV6Cxq+Zsf0LSCubx/B3N1UQDBkNsgg5LP60erP/yCRk14mLeH2bNxS8wIxjh0w+60jOVacecDz3KZNLGk9EzBLBJyWebaz9aL7Yhrhk42HiT3P7cqYkkw1i9MvOcp8b4VhuR2lNx6wEnBz+OBcV9rSm7ehz75vFxsQ2CNb1rX68Jf4+uGmKoiMP3vNw+ImDBllni4/FDlL+J1wewFFJ/YidZ+fipz123YSs1a8fGQvbqKCCAYoGFjybdwfWqPaQUv0e4fjH8JNr9kFa0oWyt+R6wr30opLbPrXi6IOcHAlDzaT3JNTY34if/vY8VXG76LnFwQrYKxyj2gYBBAsj2MzI1AtWAnugR3ptJVa4ScX38/HFwwsKqL8WdKRp0b0cy1iCrBLDOj3410NXelBuSMp/jmlxkSZftamJLtDd+68i2UEokGTUZUCYYM3G3FpxtyQl00aEqeMOVJ+vSLDZSCRSvRIBdElWA3QDKGSTHm4GTCVRVnjWAAyViGKnsvUpxVgqMRLVgxWrBitGDFaMGK0YIVowUrRgtWjBasGC1YMU2zjviEZY0isn78D43o8OjRWGtOAAAAAElFTkSuQmCC;" vertex="1" parent="1">
          <mxGeometry x="1100.0" y="100" width="75" height="75" as="geometry" />
      </mxCell>
    </object><object id="client3" label="client3">
      <mxCell style="shape=image;imageAlign=center;imageVerticalAlign=middle;labelPosition=left;align=right;verticalLabelPosition=top;spacingLeft=0;verticalAlign=bottom;spacingTop=0;spacing=0;image=data:image/png,iVBORw0KGgoAAAANSUhEUgAAAFgAAABYCAYAAABxlTA0AAAAAXNSR0IArs4c6QAAAARnQU1BAACxjwv8YQUAAAAJcEhZcwAAFxEAABcRAcom8z8AAAikSURBVHhe7ZwJbBRVGMe3pUBrASkUlVMpV6EUQSlCCqhEjbYiIQEUETFyVEAr3hDwquCFVE2EYoTWCBTk8KgmiBfGqDEoRbkE5JByWW9UtJTC5/d/MwPD8na7OzOvu4vvS35pd3bezPS337735r039flSskijiKZZf2nBKtGCFaMFK0YLVowWrBgtWDFasGK0YMVowYrRghUTlYIbX8IX1lv+XqwRVYKb9SFfYiYlpPYlX1IP+T6xRtQIhlxfF2rf4wbasHE7jc57lF+nyfeVgYyPS+cyncWHJI4n26+uiQrBpty0jFzavfcAIU6cOEE33jY1NMnnXkoJLfrSkFH308hx0ykzeyT5knvK961rIi7YytxuOSz3oJBrxQlm+JiHapfcqCc1aXcFVR2tFuUK5y7hMh3l+9Y1ERV8WuaeLtcKSB5Rm2QW3Ljt5VT582+izKw5xbx/J/m+dU3EBFtyOXP3VBwSYhBHzSw8Wm38tCKoZC3YjwDVwosvv04LFr0tft+6fQ/d9eBs8TsCdXLA6kILtgG5cWa1UHFK7qLlq1lKGyoqXiVe7913iHz1utJtEx8TrxGoLqQNnxZsg7tQPfuNoH0HK4UMxOIV75GvQQZLuYhKSt8V2yr2/0gNL8jmbe1ofP5Msc2K2yc/Tr6G3U8dUwu2kdCVcoffLUQgFiNzIfeci1lKOhUveUdsh+DElv2N7hZnrF3yHPQSErrxxZt3e1qwDVH/duL+6gx6lbPVl8RiIdesl88Q3KiXIdLXge6Z/jy9ULRUVB3o+548phYsoSHfbTXgrznGHSAX2wIJxnuQjP2R7Xa5QAuW0BT4DegEEyzK8P7+ZYAWHCK1CQ6EFhwiWrBiIi0YjafV4Mred4IWbMLnzhkxhdp1v150JT2T/L8XzI1mHN/8jJ1cIMpu2rqTUtsMNLLZC8laMAvmu8LSVe+LsojyjdupuVeSdRXBNO5F8Uk9xC27FetZsshkt9WFFsxAIBo3vomxSy7fZEp2k8lasEkzBrftfLfon8muqgvHgnGyZL4gliImGj3h/JPDlW4Ez5hZxMdK9Tt2qFzItKEX5y+j48ePi+OJ6qKtQ8mOBfMnnX3tOCopfYezrswTFrLcHbsqxB/lRvD6b7fR3KKl4sMKm5I36CUuO2/hSvrn3ypxPAQavgsuGmRUJbJrCIRjwb6ONPn+Z8zTex8/saxwBDdhwX/+fcQsrSY+W7eREs7pceZgUzAcC45Pp+FjptL+A5Ui27xkHx/zy683GQPu3MJLz2+H90luPZDLbKadu/fR9/wtcAyX37FzL33DDVx19TFTLdERzubcYfkUl5QJafLrkOFYMPcf66VeRkmt+otM85IkRsiVnTcI9VL7ivURWBnkCC5bD3UsN5AYe64+Zgg+8k8VDcrN4+0dpOcNimPB4NzexldYBRgnlp0zGE24DMo5AWXF7MmFNOm+p4VYBORemTPemVzgSvDZBOpVXxrlP/ScqZZEIzcod4JzuUCJ4EAD49EKrpUl2uUa1YJLucBzwWgAMOPrPx0UrWAsIjGTpj8xz1RrNGhX5nggF3gqWGRCGk3i7hsWkPgSuUuDuk22b7RgCn7ltbeEXKNaMBs03N3JyoSDZ4JNuWPueFRcKGLB4jKKwyQl3pOViRaQBPytw6LBwSPv9SZzLTwRbModnfewqdaIcXcWGNVFOP3GSIBMbcKNHG6Fcb1eVmuuBZtyb817xNRqRMhre6MJFd80V4ItubZqARGTclXhWLAkc7H0dOjN9/H2tkanvZEb+GZDdt5giJsU2bE8wGl2OxJsyrU3aFVV1TQ2f6aYfsHIlluSMQYrO3cA4rgebcRlZMfyAtxKO5IctmA+CaZX8qbMMtUagYGRXXv2U+VPv4phQ7fgQRgxHhFKJnOGQe6Wbbulx/KCy9F1QyMoO38wwhbMNw+JKb1py/Y9plo1gQ8KAz+hCkaW/XH4L7O09zH4JnTfusjPHwxHVQRncOsOV9Fmzhgr0EF/oaiUZheWUCH/LJzngMJXafN3u8TxMGwZrmBkGgID7oW4Dtk5HNIla5izZ/ccCUY/MT6dWrYfRJtMIZhewSyAaOAEnZiOYdKC5hW7nzKaNaeEj9Xc79guQUPnpH/sSDAwJWMaxZKMWFH2EdfRmcanHe4FeTTpiYwLe9JTFY4FA0syZ7K9ulhZ9rEx8h+uZC1YgpDcVZrJDTDdE8qUj4UWHAB7dbHtlOQlK9dQXH3bsxS1oQUHwZSMhg9T7zU1x+n6YfnGg9my/WVowbUAydwZb99ziFgzIRZy6DrYQ8EAQtG41c8ITy7QghWjBStGC1ZMqIIxxW7vmYQi2L9MXRFTglGn4zWWmWJC1RIWTDDKYGwahNOj8YqYEoyV6Cxq+Zsf0LSCubx/B3N1UQDBkNsgg5LP60erP/yCRk14mLeH2bNxS8wIxjh0w+60jOVacecDz3KZNLGk9EzBLBJyWebaz9aL7Yhrhk42HiT3P7cqYkkw1i9MvOcp8b4VhuR2lNx6wEnBz+OBcV9rSm7ehz75vFxsQ2CNb1rX68Jf4+uGmKoiMP3vNw+ImDBllni4/FDlL+J1wewFFJ/YidZ+fipz123YSs1a8fGQvbqKCCAYoGFjybdwfWqPaQUv0e4fjH8JNr9kFa0oWyt+R6wr30opLbPrXi6IOcHAlDzaT3JNTY34if/vY8VXG76LnFwQrYKxyj2gYBBAsj2MzI1AtWAnugR3ptJVa4ScX38/HFwwsKqL8WdKRp0b0cy1iCrBLDOj3410NXelBuSMp/jmlxkSZftamJLtDd+68i2UEokGTUZUCYYM3G3FpxtyQl00aEqeMOVJ+vSLDZSCRSvRIBdElWA3QDKGSTHm4GTCVRVnjWAAyViGKnsvUpxVgqMRLVgxWrBitGDFaMGK0YIVowUrRgtWjBasGC1YMU2zjviEZY0isn78D43o8OjRWGtOAAAAAElFTkSuQmCC;" vertex="1" parent="1">
          <mxGeometry x="1300.0" y="100" width="75" height="75" as="geometry" />
      </mxCell>
    </object><object id="client4" label="client4">
      <mxCell style="shape=image;imageAlign=center;imageVerticalAlign=middle;labelPosition=left;align=right;verticalLabelPosition=top;spacingLeft=0;verticalAlign=bottom;spacingTop=0;spacing=0;image=data:image/png,iVBORw0KGgoAAAANSUhEUgAAAFgAAABYCAYAAABxlTA0AAAAAXNSR0IArs4c6QAAAARnQU1BAACxjwv8YQUAAAAJcEhZcwAAFxEAABcRAcom8z8AAAikSURBVHhe7ZwJbBRVGMe3pUBrASkUlVMpV6EUQSlCCqhEjbYiIQEUETFyVEAr3hDwquCFVE2EYoTWCBTk8KgmiBfGqDEoRbkE5JByWW9UtJTC5/d/MwPD8na7OzOvu4vvS35pd3bezPS337735r039flSskijiKZZf2nBKtGCFaMFK0YLVowWrBgtWDFasGK0YMVowYrRghUTlYIbX8IX1lv+XqwRVYKb9SFfYiYlpPYlX1IP+T6xRtQIhlxfF2rf4wbasHE7jc57lF+nyfeVgYyPS+cyncWHJI4n26+uiQrBpty0jFzavfcAIU6cOEE33jY1NMnnXkoJLfrSkFH308hx0ykzeyT5knvK961rIi7YytxuOSz3oJBrxQlm+JiHapfcqCc1aXcFVR2tFuUK5y7hMh3l+9Y1ERV8WuaeLtcKSB5Rm2QW3Ljt5VT582+izKw5xbx/J/m+dU3EBFtyOXP3VBwSYhBHzSw8Wm38tCKoZC3YjwDVwosvv04LFr0tft+6fQ/d9eBs8TsCdXLA6kILtgG5cWa1UHFK7qLlq1lKGyoqXiVe7913iHz1utJtEx8TrxGoLqQNnxZsg7tQPfuNoH0HK4UMxOIV75GvQQZLuYhKSt8V2yr2/0gNL8jmbe1ofP5Msc2K2yc/Tr6G3U8dUwu2kdCVcoffLUQgFiNzIfeci1lKOhUveUdsh+DElv2N7hZnrF3yHPQSErrxxZt3e1qwDVH/duL+6gx6lbPVl8RiIdesl88Q3KiXIdLXge6Z/jy9ULRUVB3o+548phYsoSHfbTXgrznGHSAX2wIJxnuQjP2R7Xa5QAuW0BT4DegEEyzK8P7+ZYAWHCK1CQ6EFhwiWrBiIi0YjafV4Mred4IWbMLnzhkxhdp1v150JT2T/L8XzI1mHN/8jJ1cIMpu2rqTUtsMNLLZC8laMAvmu8LSVe+LsojyjdupuVeSdRXBNO5F8Uk9xC27FetZsshkt9WFFsxAIBo3vomxSy7fZEp2k8lasEkzBrftfLfon8muqgvHgnGyZL4gliImGj3h/JPDlW4Ez5hZxMdK9Tt2qFzItKEX5y+j48ePi+OJ6qKtQ8mOBfMnnX3tOCopfYezrswTFrLcHbsqxB/lRvD6b7fR3KKl4sMKm5I36CUuO2/hSvrn3ypxPAQavgsuGmRUJbJrCIRjwb6ONPn+Z8zTex8/saxwBDdhwX/+fcQsrSY+W7eREs7pceZgUzAcC45Pp+FjptL+A5Ui27xkHx/zy683GQPu3MJLz2+H90luPZDLbKadu/fR9/wtcAyX37FzL33DDVx19TFTLdERzubcYfkUl5QJafLrkOFYMPcf66VeRkmt+otM85IkRsiVnTcI9VL7ivURWBnkCC5bD3UsN5AYe64+Zgg+8k8VDcrN4+0dpOcNimPB4NzexldYBRgnlp0zGE24DMo5AWXF7MmFNOm+p4VYBORemTPemVzgSvDZBOpVXxrlP/ScqZZEIzcod4JzuUCJ4EAD49EKrpUl2uUa1YJLucBzwWgAMOPrPx0UrWAsIjGTpj8xz1RrNGhX5nggF3gqWGRCGk3i7hsWkPgSuUuDuk22b7RgCn7ltbeEXKNaMBs03N3JyoSDZ4JNuWPueFRcKGLB4jKKwyQl3pOViRaQBPytw6LBwSPv9SZzLTwRbModnfewqdaIcXcWGNVFOP3GSIBMbcKNHG6Fcb1eVmuuBZtyb817xNRqRMhre6MJFd80V4ItubZqARGTclXhWLAkc7H0dOjN9/H2tkanvZEb+GZDdt5giJsU2bE8wGl2OxJsyrU3aFVV1TQ2f6aYfsHIlluSMQYrO3cA4rgebcRlZMfyAtxKO5IctmA+CaZX8qbMMtUagYGRXXv2U+VPv4phQ7fgQRgxHhFKJnOGQe6Wbbulx/KCy9F1QyMoO38wwhbMNw+JKb1py/Y9plo1gQ8KAz+hCkaW/XH4L7O09zH4JnTfusjPHwxHVQRncOsOV9Fmzhgr0EF/oaiUZheWUCH/LJzngMJXafN3u8TxMGwZrmBkGgID7oW4Dtk5HNIla5izZ/ccCUY/MT6dWrYfRJtMIZhewSyAaOAEnZiOYdKC5hW7nzKaNaeEj9Xc79guQUPnpH/sSDAwJWMaxZKMWFH2EdfRmcanHe4FeTTpiYwLe9JTFY4FA0syZ7K9ulhZ9rEx8h+uZC1YgpDcVZrJDTDdE8qUj4UWHAB7dbHtlOQlK9dQXH3bsxS1oQUHwZSMhg9T7zU1x+n6YfnGg9my/WVowbUAydwZb99ziFgzIRZy6DrYQ8EAQtG41c8ITy7QghWjBStGC1ZMqIIxxW7vmYQi2L9MXRFTglGn4zWWmWJC1RIWTDDKYGwahNOj8YqYEoyV6Cxq+Zsf0LSCubx/B3N1UQDBkNsgg5LP60erP/yCRk14mLeH2bNxS8wIxjh0w+60jOVacecDz3KZNLGk9EzBLBJyWebaz9aL7Yhrhk42HiT3P7cqYkkw1i9MvOcp8b4VhuR2lNx6wEnBz+OBcV9rSm7ehz75vFxsQ2CNb1rX68Jf4+uGmKoiMP3vNw+ImDBllni4/FDlL+J1wewFFJ/YidZ+fipz123YSs1a8fGQvbqKCCAYoGFjybdwfWqPaQUv0e4fjH8JNr9kFa0oWyt+R6wr30opLbPrXi6IOcHAlDzaT3JNTY34if/vY8VXG76LnFwQrYKxyj2gYBBAsj2MzI1AtWAnugR3ptJVa4ScX38/HFwwsKqL8WdKRp0b0cy1iCrBLDOj3410NXelBuSMp/jmlxkSZftamJLtDd+68i2UEokGTUZUCYYM3G3FpxtyQl00aEqeMOVJ+vSLDZSCRSvRIBdElWA3QDKGSTHm4GTCVRVnjWAAyViGKnsvUpxVgqMRLVgxWrBitGDFaMGK0YIVowUrRgtWjBasGC1YMU2zjviEZY0isn78D43o8OjRWGtOAAAAAElFTkSuQmCC;" vertex="1" parent="1">
          <mxGeometry x="1500.0" y="100" width="75" height="75" as="geometry" />
      </mxCell>
    </object><mxCell id="7bf2491e03d89a0b843f5b201d91250e-src" value="e1-1" style="labelBackgroundColor=#ffffff;;" vertex="1" connectable="0" parent="7bf2491e03d89a0b843f5b201d91250e">
      <mxGeometry x="-0.5" relative="1" as="geometry">
        <mxPoint as="offset" />
      </mxGeometry>
    </mxCell><mxCell id="7bf2491e03d89a0b843f5b201d91250e-trgt" value="e1-1" style="labelBackgroundColor=#ffffff;;" vertex="1" connectable="0" parent="7bf2491e03d89a0b843f5b201d91250e">
      <mxGeometry x="0.5" relative="-1" as="geometry">
        <mxPoint as="offset" />
      </mxGeometry>
    </mxCell><object id="7bf2491e03d89a0b843f5b201d91250e" label="" src_label="e1-1" trgt_label="e1-1" source="leaf1" target="spine1">
      <mxCell style="endArrow=none;jumpStyle=gap;entryY=0;exitY=1;entryX=0.5;exitX=0.5;exitDy=0;entryDy=0;entryDx=0;exitDx=0;" edge="1" parent="1" source="leaf1" target="spine1">
          <mxGeometry relative="1" as="geometry" />
      </mxCell>
    </object><mxCell id="d2fb51a790b89cdadf7ffabd71c13362-src" value="e1-2" style="labelBackgroundColor=#ffffff;;" vertex="1" connectable="0" parent="d2fb51a790b89cdadf7ffabd71c13362">
      <mxGeometry x="-0.5" relative="1" as="geometry">
        <mxPoint as="offset" />
      </mxGeometry>
    </mxCell><mxCell id="d2fb51a790b89cdadf7ffabd71c13362-trgt" value="e1-1" style="labelBackgroundColor=#ffffff;;" vertex="1" connectable="0" parent="d2fb51a790b89cdadf7ffabd71c13362">
      <mxGeometry x="0.5" relative="-1" as="geometry">
        <mxPoint as="offset" />
      </mxGeometry>
    </mxCell><object id="d2fb51a790b89cdadf7ffabd71c13362" label="" src_label="e1-2" trgt_label="e1-1" source="leaf1" target="spine2">
      <mxCell style="endArrow=none;jumpStyle=gap;entryY=0;exitY=1;entryX=0.5;exitX=0.5;exitDy=0;entryDy=0;entryDx=0;exitDx=0;" edge="1" parent="1" source="leaf1" target="spine2">
          <mxGeometry relative="1" as="geometry" />
      </mxCell>
    </object><mxCell id="26820b6078d1c3c064569352d2aafaec-src" value="e1-1" style="labelBackgroundColor=#ffffff;;" vertex="1" connectable="0" parent="26820b6078d1c3c064569352d2aafaec">
      <mxGeometry x="-0.5" relative="1" as="geometry">
        <mxPoint as="offset" />
      </mxGeometry>
    </mxCell><mxCell id="26820b6078d1c3c064569352d2aafaec-trgt" value="e1-2" style="labelBackgroundColor=#ffffff;;" vertex="1" connectable="0" parent="26820b6078d1c3c064569352d2aafaec">
      <mxGeometry x="0.5" relative="-1" as="geometry">
        <mxPoint as="offset" />
      </mxGeometry>
    </mxCell><object id="26820b6078d1c3c064569352d2aafaec" label="" src_label="e1-1" trgt_label="e1-2" source="leaf2" target="spine1">
      <mxCell style="endArrow=none;jumpStyle=gap;entryY=0;exitY=1;entryX=0.5;exitX=0.5;exitDy=0;entryDy=0;entryDx=0;exitDx=0;" edge="1" parent="1" source="leaf2" target="spine1">
          <mxGeometry relative="1" as="geometry" />
      </mxCell>
    </object><mxCell id="ecae38e91cecf393208c310dfd02169e-src" value="e1-2" style="labelBackgroundColor=#ffffff;;" vertex="1" connectable="0" parent="ecae38e91cecf393208c310dfd02169e">
      <mxGeometry x="-0.5" relative="1" as="geometry">
        <mxPoint as="offset" />
      </mxGeometry>
    </mxCell><mxCell id="ecae38e91cecf393208c310dfd02169e-trgt" value="e1-2" style="labelBackgroundColor=#ffffff;;" vertex="1" connectable="0" parent="ecae38e91cecf393208c310dfd02169e">
      <mxGeometry x="0.5" relative="-1" as="geometry">
        <mxPoint as="offset" />
      </mxGeometry>
    </mxCell><object id="ecae38e91cecf393208c310dfd02169e" label="" src_label="e1-2" trgt_label="e1-2" source="leaf2" target="spine2">
      <mxCell style="endArrow=none;jumpStyle=gap;entryY=0;exitY=1;entryX=0.5;exitX=0.5;exitDy=0;entryDy=0;entryDx=0;exitDx=0;" edge="1" parent="1" source="leaf2" target="spine2">
          <mxGeometry relative="1" as="geometry" />
      </mxCell>
    </object><mxCell id="7ea90f7c914f07581e6612da7e833e8f-src" value="e1-3" style="labelBackgroundColor=#ffffff;;" vertex="1" connectable="0" parent="7ea90f7c914f07581e6612da7e833e8f">
      <mxGeometry x="-0.5" relative="1" as="geometry">
        <mxPoint as="offset" />
      </mxGeometry>
    </mxCell><mxCell id="7ea90f7c914f07581e6612da7e833e8f-trgt" value="e1-1" style="labelBackgroundColor=#ffffff;;" vertex="1" connectable="0" parent="7ea90f7c914f07581e6612da7e833e8f">
      <mxGeometry x="0.5" relative="-1" as="geometry">
        <mxPoint as="offset" />
      </mxGeometry>
    </mxCell><object id="7ea90f7c914f07581e6612da7e833e8f" label="" src_label="e1-3" trgt_label="e1-1" source="spine1" target="superspine1">
      <mxCell style="endArrow=none;jumpStyle=gap;entryY=0;exitY=1;entryX=0.5;exitX=0.5;exitDy=0;entryDy=0;entryDx=0;exitDx=0;" edge="1" parent="1" source="spine1" target="superspine1">
          <mxGeometry relative="1" as="geometry" />
      </mxCell>
    </object><mxCell id="b8b78790c6fa0e2ae29ab7acde857187-src" value="e1-3" style="labelBackgroundColor=#ffffff;;" vertex="1" connectable="0" parent="b8b78790c6fa0e2ae29ab7acde857187">
      <mxGeometry x="-0.5" relative="1" as="geometry">
        <mxPoint as="offset" />
      </mxGeometry>
    </mxCell><mxCell id="b8b78790c6fa0e2ae29ab7acde857187-trgt" value="e1-1" style="labelBackgroundColor=#ffffff;;" vertex="1" connectable="0" parent="b8b78790c6fa0e2ae29ab7acde857187">
      <mxGeometry x="0.5" relative="-1" as="geometry">
        <mxPoint as="offset" />
      </mxGeometry>
    </mxCell><object id="b8b78790c6fa0e2ae29ab7acde857187" label="" src_label="e1-3" trgt_label="e1-1" source="spine2" target="superspine2">
      <mxCell style="endArrow=none;jumpStyle=gap;entryY=0;exitY=1;entryX=0.5;exitX=0.5;exitDy=0;entryDy=0;entryDx=0;exitDx=0;" edge="1" parent="1" source="spine2" target="superspine2">
          <mxGeometry relative="1" as="geometry" />
      </mxCell>
    </object><mxCell id="c8a33b976c284bc49f4bcac503d63e04-src" value="e1-1" style="labelBackgroundColor=#ffffff;;" vertex="1" connectable="0" parent="c8a33b976c284bc49f4bcac503d63e04">
      <mxGeometry x="-0.5" relative="1" as="geometry">
        <mxPoint as="offset" />
      </mxGeometry>
    </mxCell><mxCell id="c8a33b976c284bc49f4bcac503d63e04-trgt" value="e1-1" style="labelBackgroundColor=#ffffff;;" vertex="1" connectable="0" parent="c8a33b976c284bc49f4bcac503d63e04">
      <mxGeometry x="0.5" relative="-1" as="geometry">
        <mxPoint as="offset" />
      </mxGeometry>
    </mxCell><object id="c8a33b976c284bc49f4bcac503d63e04" label="" src_label="e1-1" trgt_label="e1-1" source="leaf3" target="spine3">
      <mxCell style="endArrow=none;jumpStyle=gap;entryY=0;exitY=1;entryX=0.5;exitX=0.5;exitDy=0;entryDy=0;entryDx=0;exitDx=0;" edge="1" parent="1" source="leaf3" target="spine3">
          <mxGeometry relative="1" as="geometry" />
      </mxCell>
    </object><mxCell id="faff0695a40ce02dd3570a5a6aa70b33-src" value="e1-2" style="labelBackgroundColor=#ffffff;;" vertex="1" connectable="0" parent="faff0695a40ce02dd3570a5a6aa70b33">
      <mxGeometry x="-0.5" relative="1" as="geometry">
        <mxPoint as="offset" />
      </mxGeometry>
    </mxCell><mxCell id="faff0695a40ce02dd3570a5a6aa70b33-trgt" value="e1-1" style="labelBackgroundColor=#ffffff;;" vertex="1" connectable="0" parent="faff0695a40ce02dd3570a5a6aa70b33">
      <mxGeometry x="0.5" relative="-1" as="geometry">
        <mxPoint as="offset" />
      </mxGeometry>
    </mxCell><object id="faff0695a40ce02dd3570a5a6aa70b33" label="" src_label="e1-2" trgt_label="e1-1" source="leaf3" target="spine4">
      <mxCell style="endArrow=none;jumpStyle=gap;entryY=0;exitY=1;entryX=0.5;exitX=0.5;exitDy=0;entryDy=0;entryDx=0;exitDx=0;" edge="1" parent="1" source="leaf3" target="spine4">
          <mxGeometry relative="1" as="geometry" />
      </mxCell>
    </object><mxCell id="bc37e6788d9ec178baba9c092e2a7804-src" value="e1-1" style="labelBackgroundColor=#ffffff;;" vertex="1" connectable="0" parent="bc37e6788d9ec178baba9c092e2a7804">
      <mxGeometry x="-0.5" relative="1" as="geometry">
        <mxPoint as="offset" />
      </mxGeometry>
    </mxCell><mxCell id="bc37e6788d9ec178baba9c092e2a7804-trgt" value="e1-2" style="labelBackgroundColor=#ffffff;;" vertex="1" connectable="0" parent="bc37e6788d9ec178baba9c092e2a7804">
      <mxGeometry x="0.5" relative="-1" as="geometry">
        <mxPoint as="offset" />
      </mxGeometry>
    </mxCell><object id="bc37e6788d9ec178baba9c092e2a7804" label="" src_label="e1-1" trgt_label="e1-2" source="leaf4" target="spine3">
      <mxCell style="endArrow=none;jumpStyle=gap;entryY=0;exitY=1;entryX=0.5;exitX=0.5;exitDy=0;entryDy=0;entryDx=0;exitDx=0;" edge="1" parent="1" source="leaf4" target="spine3">
          <mxGeometry relative="1" as="geometry" />
      </mxCell>
    </object><mxCell id="66967838ddbef8eaef14be0c2b97806b-src" value="e1-2" style="labelBackgroundColor=#ffffff;;" vertex="1" connectable="0" parent="66967838ddbef8eaef14be0c2b97806b">
      <mxGeometry x="-0.5" relative="1" as="geometry">
        <mxPoint as="offset" />
      </mxGeometry>
    </mxCell><mxCell id="66967838ddbef8eaef14be0c2b97806b-trgt" value="e1-2" style="labelBackgroundColor=#ffffff;;" vertex="1" connectable="0" parent="66967838ddbef8eaef14be0c2b97806b">
      <mxGeometry x="0.5" relative="-1" as="geometry">
        <mxPoint as="offset" />
      </mxGeometry>
    </mxCell><object id="66967838ddbef8eaef14be0c2b97806b" label="" src_label="e1-2" trgt_label="e1-2" source="leaf4" target="spine4">
      <mxCell style="endArrow=none;jumpStyle=gap;entryY=0;exitY=1;entryX=0.5;exitX=0.5;exitDy=0;entryDy=0;entryDx=0;exitDx=0;" edge="1" parent="1" source="leaf4" target="spine4">
          <mxGeometry relative="1" as="geometry" />
      </mxCell>
    </object><mxCell id="b7ce47d933d7c3db70a68f45fc5fa7ec-src" value="e1-3" style="labelBackgroundColor=#ffffff;;" vertex="1" connectable="0" parent="b7ce47d933d7c3db70a68f45fc5fa7ec">
      <mxGeometry x="-0.5" relative="1" as="geometry">
        <mxPoint as="offset" />
      </mxGeometry>
    </mxCell><mxCell id="b7ce47d933d7c3db70a68f45fc5fa7ec-trgt" value="e1-2" style="labelBackgroundColor=#ffffff;;" vertex="1" connectable="0" parent="b7ce47d933d7c3db70a68f45fc5fa7ec">
      <mxGeometry x="0.5" relative="-1" as="geometry">
        <mxPoint as="offset" />
      </mxGeometry>
    </mxCell><object id="b7ce47d933d7c3db70a68f45fc5fa7ec" label="" src_label="e1-3" trgt_label="e1-2" source="spine3" target="superspine1">
      <mxCell style="endArrow=none;jumpStyle=gap;entryY=0;exitY=1;entryX=0.5;exitX=0.5;exitDy=0;entryDy=0;entryDx=0;exitDx=0;" edge="1" parent="1" source="spine3" target="superspine1">
          <mxGeometry relative="1" as="geometry" />
      </mxCell>
    </object><mxCell id="4bb5619d04d5b8e60e45760354d5f005-src" value="e1-3" style="labelBackgroundColor=#ffffff;;" vertex="1" connectable="0" parent="4bb5619d04d5b8e60e45760354d5f005">
      <mxGeometry x="-0.5" relative="1" as="geometry">
        <mxPoint as="offset" />
      </mxGeometry>
    </mxCell><mxCell id="4bb5619d04d5b8e60e45760354d5f005-trgt" value="e1-2" style="labelBackgroundColor=#ffffff;;" vertex="1" connectable="0" parent="4bb5619d04d5b8e60e45760354d5f005">
      <mxGeometry x="0.5" relative="-1" as="geometry">
        <mxPoint as="offset" />
      </mxGeometry>
    </mxCell><object id="4bb5619d04d5b8e60e45760354d5f005" label="" src_label="e1-3" trgt_label="e1-2" source="spine4" target="superspine2">
      <mxCell style="endArrow=none;jumpStyle=gap;entryY=0;exitY=1;entryX=0.5;exitX=0.5;exitDy=0;entryDy=0;entryDx=0;exitDx=0;" edge="1" parent="1" source="spine4" target="superspine2">
          <mxGeometry relative="1" as="geometry" />
      </mxCell>
    </object><mxCell id="149a6c77b479b41d25896c54820bfe66-src" value="eth1" style="labelBackgroundColor=#ffffff;;" vertex="1" connectable="0" parent="149a6c77b479b41d25896c54820bfe66">
      <mxGeometry x="-0.5" relative="1" as="geometry">
        <mxPoint as="offset" />
      </mxGeometry>
    </mxCell><mxCell id="149a6c77b479b41d25896c54820bfe66-trgt" value="e1-3" style="labelBackgroundColor=#ffffff;;" vertex="1" connectable="0" parent="149a6c77b479b41d25896c54820bfe66">
      <mxGeometry x="0.5" relative="-1" as="geometry">
        <mxPoint as="offset" />
      </mxGeometry>
    </mxCell><object id="149a6c77b479b41d25896c54820bfe66" label="" src_label="eth1" trgt_label="e1-3" source="client1" target="leaf1">
      <mxCell style="endArrow=none;jumpStyle=gap;entryY=0;exitY=1;entryX=0.5;exitX=0.5;exitDy=0;entryDy=0;entryDx=0;exitDx=0;" edge="1" parent="1" source="client1" target="leaf1">
          <mxGeometry relative="1" as="geometry" />
      </mxCell>
    </object><mxCell id="fed346caff19e88aa816186a2268fdf8-src" value="eth1" style="labelBackgroundColor=#ffffff;;" vertex="1" connectable="0" parent="fed346caff19e88aa816186a2268fdf8">
      <mxGeometry x="-0.5" relative="1" as="geometry">
        <mxPoint as="offset" />
      </mxGeometry>
    </mxCell><mxCell id="fed346caff19e88aa816186a2268fdf8-trgt" value="e1-3" style="labelBackgroundColor=#ffffff;;" vertex="1" connectable="0" parent="fed346caff19e88aa816186a2268fdf8">
      <mxGeometry x="0.5" relative="-1" as="geometry">
        <mxPoint as="offset" />
      </mxGeometry>
    </mxCell><object id="fed346caff19e88aa816186a2268fdf8" label="" src_label="eth1" trgt_label="e1-3" source="client2" target="leaf2">
      <mxCell style="endArrow=none;jumpStyle=gap;entryY=0;exitY=1;entryX=0.5;exitX=0.5;exitDy=0;entryDy=0;entryDx=0;exitDx=0;" edge="1" parent="1" source="client2" target="leaf2">
          <mxGeometry relative="1" as="geometry" />
      </mxCell>
    </object><mxCell id="7dc5d5fa689a222f06585278e13f0f3b-src" value="eth1" style="labelBackgroundColor=#ffffff;;" vertex="1" connectable="0" parent="7dc5d5fa689a222f06585278e13f0f3b">
      <mxGeometry x="-0.5" relative="1" as="geometry">
        <mxPoint as="offset" />
      </mxGeometry>
    </mxCell><mxCell id="7dc5d5fa689a222f06585278e13f0f3b-trgt" value="e1-3" style="labelBackgroundColor=#ffffff;;" vertex="1" connectable="0" parent="7dc5d5fa689a222f06585278e13f0f3b">
      <mxGeometry x="0.5" relative="-1" as="geometry">
        <mxPoint as="offset" />
      </mxGeometry>
    </mxCell><object id="7dc5d5fa689a222f06585278e13f0f3b" label="" src_label="eth1" trgt_label="e1-3" source="client3" target="leaf3">
      <mxCell style="endArrow=none;jumpStyle=gap;entryY=0;exitY=1;entryX=0.5;exitX=0.5;exitDy=0;entryDy=0;entryDx=0;exitDx=0;" edge="1" parent="1" source="client3" target="leaf3">
          <mxGeometry relative="1" as="geometry" />
      </mxCell>
    </object><mxCell id="983a20f2c9b172b89ed10b1b844db2c9-src" value="eth1" style="labelBackgroundColor=#ffffff;;" vertex="1" connectable="0" parent="983a20f2c9b172b89ed10b1b844db2c9">
      <mxGeometry x="-0.5" relative="1" as="geometry">
        <mxPoint as="offset" />
      </mxGeometry>
    </mxCell><mxCell id="983a20f2c9b172b89ed10b1b844db2c9-trgt" value="e1-3" style="labelBackgroundColor=#ffffff;;" vertex="1" connectable="0" parent="983a20f2c9b172b89ed10b1b844db2c9">
      <mxGeometry x="0.5" relative="-1" as="geometry">
        <mxPoint as="offset" />
      </mxGeometry>
    </mxCell><object id="983a20f2c9b172b89ed10b1b844db2c9" label="" src_label="eth1" trgt_label="e1-3" source="client4" target="leaf4">
      <mxCell style="endArrow=none;jumpStyle=gap;entryY=0;exitY=1;entryX=0.5;exitX=0.5;exitDy=0;entryDy=0;entryDx=0;exitDx=0;" edge="1" parent="1" source="client4" target="leaf4">
          <mxGeometry relative="1" as="geometry" />
      </mxCell>
    </object></root>
      </mxGraphModel>
    </diagram></mxfile>